<svg xmlns="http://www.w3.org/2000/svg" xmlns:xlink="http://www.w3.org/1999/xlink" width="1000" zoomAndPan="magnify" viewBox="0 0 750 337.499995" height="450" preserveAspectRatio="xMidYMid meet" version="1.0"><defs><filter x="0%" y="0%" width="100%" height="100%" id="d27c8bf8a3"><feColorMatrix values="0 0 0 0 1 0 0 0 0 1 0 0 0 0 1 0 0 0 1 0" color-interpolation-filters="sRGB"/></filter><g/><clipPath id="1adcdd13cf"><path d="M 0.554688 0 L 749.445312 0 L 749.445312 337 L 0.554688 337 Z M 0.554688 0 " clip-rule="nonzero"/></clipPath><clipPath id="6d0b9b9634"><rect x="0" width="401" y="0" height="255"/></clipPath><clipPath id="ea20627541"><path d="M 0.714844 0 L 260.1875 0 L 260.1875 148.027344 L 0.714844 148.027344 Z M 0.714844 0 " clip-rule="nonzero"/></clipPath><clipPath id="59625501f9"><path d="M 0.714844 0 L 260.1875 0 L 260.1875 148.027344 L 0.714844 148.027344 Z M 0.714844 0 " clip-rule="nonzero"/></clipPath><clipPath id="bbc60840a3"><path d="M 14.996094 0 L 245.902344 0 L 245.902344 148.027344 L 14.996094 148.027344 Z M 14.996094 0 " clip-rule="nonzero"/></clipPath><linearGradient x1="-18.187999" gradientTransform="matrix(2.383558, 0, 0, 2.380487, 58.347971, 52.806996)" y1="7.5" x2="78.687" gradientUnits="userSpaceOnUse" y2="7.5" id="10df70c075"><stop stop-opacity="1" stop-color="rgb(100%, 19.219971%, 19.219971%)" offset="0"/><stop stop-opacity="1" stop-color="rgb(100%, 19.302368%, 19.244385%)" offset="0.25"/><stop stop-opacity="1" stop-color="rgb(100%, 19.677734%, 19.352722%)" offset="0.253906"/><stop stop-opacity="1" stop-color="rgb(100%, 19.969177%, 19.438171%)" offset="0.257812"/><stop stop-opacity="1" stop-color="rgb(100%, 20.26062%, 19.522095%)" offset="0.261719"/><stop stop-opacity="1" stop-color="rgb(100%, 20.552063%, 19.607544%)" offset="0.265625"/><stop stop-opacity="1" stop-color="rgb(100%, 20.843506%, 19.692993%)" offset="0.269531"/><stop stop-opacity="1" stop-color="rgb(100%, 21.134949%, 19.778442%)" offset="0.273438"/><stop stop-opacity="1" stop-color="rgb(100%, 21.426392%, 19.862366%)" offset="0.277344"/><stop stop-opacity="1" stop-color="rgb(100%, 21.717834%, 19.947815%)" offset="0.28125"/><stop stop-opacity="1" stop-color="rgb(100%, 22.009277%, 20.033264%)" offset="0.285156"/><stop stop-opacity="1" stop-color="rgb(100%, 22.30072%, 20.118713%)" offset="0.289062"/><stop stop-opacity="1" stop-color="rgb(100%, 22.592163%, 20.202637%)" offset="0.292969"/><stop stop-opacity="1" stop-color="rgb(100%, 22.883606%, 20.288086%)" offset="0.296875"/><stop stop-opacity="1" stop-color="rgb(100%, 23.175049%, 20.373535%)" offset="0.300781"/><stop stop-opacity="1" stop-color="rgb(100%, 23.466492%, 20.458984%)" offset="0.304688"/><stop stop-opacity="1" stop-color="rgb(100%, 23.757935%, 20.542908%)" offset="0.308594"/><stop stop-opacity="1" stop-color="rgb(100%, 24.049377%, 20.628357%)" offset="0.3125"/><stop stop-opacity="1" stop-color="rgb(100%, 24.34082%, 20.71228%)" offset="0.316406"/><stop stop-opacity="1" stop-color="rgb(100%, 24.632263%, 20.797729%)" offset="0.320312"/><stop stop-opacity="1" stop-color="rgb(100%, 24.923706%, 20.883179%)" offset="0.324219"/><stop stop-opacity="1" stop-color="rgb(100%, 25.215149%, 20.968628%)" offset="0.328125"/><stop stop-opacity="1" stop-color="rgb(100%, 25.506592%, 21.052551%)" offset="0.332031"/><stop stop-opacity="1" stop-color="rgb(100%, 25.798035%, 21.138%)" offset="0.335938"/><stop stop-opacity="1" stop-color="rgb(100%, 26.089478%, 21.22345%)" offset="0.339844"/><stop stop-opacity="1" stop-color="rgb(100%, 26.38092%, 21.308899%)" offset="0.34375"/><stop stop-opacity="1" stop-color="rgb(100%, 26.672363%, 21.392822%)" offset="0.347656"/><stop stop-opacity="1" stop-color="rgb(100%, 26.963806%, 21.478271%)" offset="0.351563"/><stop stop-opacity="1" stop-color="rgb(100%, 27.255249%, 21.563721%)" offset="0.355469"/><stop stop-opacity="1" stop-color="rgb(100%, 27.546692%, 21.64917%)" offset="0.359375"/><stop stop-opacity="1" stop-color="rgb(100%, 27.838135%, 21.733093%)" offset="0.363281"/><stop stop-opacity="1" stop-color="rgb(100%, 28.129578%, 21.818542%)" offset="0.367188"/><stop stop-opacity="1" stop-color="rgb(100%, 28.421021%, 21.902466%)" offset="0.371094"/><stop stop-opacity="1" stop-color="rgb(100%, 28.712463%, 21.987915%)" offset="0.375"/><stop stop-opacity="1" stop-color="rgb(100%, 29.003906%, 22.073364%)" offset="0.378906"/><stop stop-opacity="1" stop-color="rgb(100%, 29.295349%, 22.158813%)" offset="0.382812"/><stop stop-opacity="1" stop-color="rgb(100%, 29.586792%, 22.242737%)" offset="0.386719"/><stop stop-opacity="1" stop-color="rgb(100%, 29.878235%, 22.328186%)" offset="0.390625"/><stop stop-opacity="1" stop-color="rgb(100%, 30.169678%, 22.413635%)" offset="0.394531"/><stop stop-opacity="1" stop-color="rgb(100%, 30.461121%, 22.499084%)" offset="0.398438"/><stop stop-opacity="1" stop-color="rgb(100%, 30.752563%, 22.583008%)" offset="0.402344"/><stop stop-opacity="1" stop-color="rgb(100%, 31.044006%, 22.668457%)" offset="0.40625"/><stop stop-opacity="1" stop-color="rgb(100%, 31.335449%, 22.753906%)" offset="0.410156"/><stop stop-opacity="1" stop-color="rgb(100%, 31.626892%, 22.839355%)" offset="0.414063"/><stop stop-opacity="1" stop-color="rgb(100%, 31.918335%, 22.923279%)" offset="0.417969"/><stop stop-opacity="1" stop-color="rgb(100%, 32.209778%, 23.008728%)" offset="0.421875"/><stop stop-opacity="1" stop-color="rgb(100%, 32.501221%, 23.092651%)" offset="0.425781"/><stop stop-opacity="1" stop-color="rgb(100%, 32.792664%, 23.178101%)" offset="0.429688"/><stop stop-opacity="1" stop-color="rgb(100%, 33.084106%, 23.26355%)" offset="0.433594"/><stop stop-opacity="1" stop-color="rgb(100%, 33.375549%, 23.348999%)" offset="0.4375"/><stop stop-opacity="1" stop-color="rgb(100%, 33.666992%, 23.432922%)" offset="0.441406"/><stop stop-opacity="1" stop-color="rgb(100%, 33.958435%, 23.518372%)" offset="0.445312"/><stop stop-opacity="1" stop-color="rgb(100%, 34.249878%, 23.603821%)" offset="0.449219"/><stop stop-opacity="1" stop-color="rgb(100%, 34.541321%, 23.68927%)" offset="0.453125"/><stop stop-opacity="1" stop-color="rgb(100%, 34.832764%, 23.773193%)" offset="0.457031"/><stop stop-opacity="1" stop-color="rgb(100%, 35.124207%, 23.858643%)" offset="0.460938"/><stop stop-opacity="1" stop-color="rgb(100%, 35.415649%, 23.944092%)" offset="0.464844"/><stop stop-opacity="1" stop-color="rgb(100%, 35.707092%, 24.029541%)" offset="0.46875"/><stop stop-opacity="1" stop-color="rgb(100%, 35.998535%, 24.113464%)" offset="0.472656"/><stop stop-opacity="1" stop-color="rgb(100%, 36.289978%, 24.198914%)" offset="0.476562"/><stop stop-opacity="1" stop-color="rgb(100%, 36.581421%, 24.282837%)" offset="0.480469"/><stop stop-opacity="1" stop-color="rgb(100%, 36.872864%, 24.368286%)" offset="0.484375"/><stop stop-opacity="1" stop-color="rgb(100%, 37.164307%, 24.453735%)" offset="0.488281"/><stop stop-opacity="1" stop-color="rgb(100%, 37.45575%, 24.539185%)" offset="0.492188"/><stop stop-opacity="1" stop-color="rgb(100%, 37.747192%, 24.623108%)" offset="0.496094"/><stop stop-opacity="1" stop-color="rgb(100%, 38.038635%, 24.708557%)" offset="0.5"/><stop stop-opacity="1" stop-color="rgb(100%, 38.330078%, 24.794006%)" offset="0.503906"/><stop stop-opacity="1" stop-color="rgb(100%, 38.621521%, 24.879456%)" offset="0.507812"/><stop stop-opacity="1" stop-color="rgb(100%, 38.912964%, 24.963379%)" offset="0.511719"/><stop stop-opacity="1" stop-color="rgb(100%, 39.204407%, 25.048828%)" offset="0.515625"/><stop stop-opacity="1" stop-color="rgb(100%, 39.49585%, 25.134277%)" offset="0.519531"/><stop stop-opacity="1" stop-color="rgb(100%, 39.787292%, 25.219727%)" offset="0.523438"/><stop stop-opacity="1" stop-color="rgb(100%, 40.078735%, 25.30365%)" offset="0.527344"/><stop stop-opacity="1" stop-color="rgb(100%, 40.370178%, 25.389099%)" offset="0.53125"/><stop stop-opacity="1" stop-color="rgb(100%, 40.661621%, 25.473022%)" offset="0.535156"/><stop stop-opacity="1" stop-color="rgb(100%, 40.953064%, 25.558472%)" offset="0.539062"/><stop stop-opacity="1" stop-color="rgb(100%, 41.244507%, 25.643921%)" offset="0.542969"/><stop stop-opacity="1" stop-color="rgb(100%, 41.53595%, 25.72937%)" offset="0.546875"/><stop stop-opacity="1" stop-color="rgb(100%, 41.827393%, 25.813293%)" offset="0.550781"/><stop stop-opacity="1" stop-color="rgb(100%, 42.118835%, 25.898743%)" offset="0.554688"/><stop stop-opacity="1" stop-color="rgb(100%, 42.410278%, 25.984192%)" offset="0.558594"/><stop stop-opacity="1" stop-color="rgb(100%, 42.701721%, 26.069641%)" offset="0.5625"/><stop stop-opacity="1" stop-color="rgb(100%, 42.993164%, 26.153564%)" offset="0.566406"/><stop stop-opacity="1" stop-color="rgb(100%, 43.284607%, 26.239014%)" offset="0.570312"/><stop stop-opacity="1" stop-color="rgb(100%, 43.57605%, 26.324463%)" offset="0.574219"/><stop stop-opacity="1" stop-color="rgb(100%, 43.867493%, 26.409912%)" offset="0.578125"/><stop stop-opacity="1" stop-color="rgb(100%, 44.158936%, 26.493835%)" offset="0.582031"/><stop stop-opacity="1" stop-color="rgb(100%, 44.450378%, 26.579285%)" offset="0.585938"/><stop stop-opacity="1" stop-color="rgb(100%, 44.741821%, 26.663208%)" offset="0.589844"/><stop stop-opacity="1" stop-color="rgb(100%, 45.033264%, 26.748657%)" offset="0.59375"/><stop stop-opacity="1" stop-color="rgb(100%, 45.324707%, 26.834106%)" offset="0.597656"/><stop stop-opacity="1" stop-color="rgb(100%, 45.61615%, 26.919556%)" offset="0.601562"/><stop stop-opacity="1" stop-color="rgb(100%, 45.907593%, 27.003479%)" offset="0.605469"/><stop stop-opacity="1" stop-color="rgb(100%, 46.199036%, 27.088928%)" offset="0.609375"/><stop stop-opacity="1" stop-color="rgb(100%, 46.490479%, 27.174377%)" offset="0.613281"/><stop stop-opacity="1" stop-color="rgb(100%, 46.781921%, 27.259827%)" offset="0.617188"/><stop stop-opacity="1" stop-color="rgb(100%, 47.073364%, 27.34375%)" offset="0.621094"/><stop stop-opacity="1" stop-color="rgb(100%, 47.364807%, 27.429199%)" offset="0.625"/><stop stop-opacity="1" stop-color="rgb(100%, 47.65625%, 27.514648%)" offset="0.628906"/><stop stop-opacity="1" stop-color="rgb(100%, 47.947693%, 27.600098%)" offset="0.632813"/><stop stop-opacity="1" stop-color="rgb(100%, 48.239136%, 27.684021%)" offset="0.636719"/><stop stop-opacity="1" stop-color="rgb(100%, 48.530579%, 27.76947%)" offset="0.640625"/><stop stop-opacity="1" stop-color="rgb(100%, 48.822021%, 27.853394%)" offset="0.644531"/><stop stop-opacity="1" stop-color="rgb(100%, 49.113464%, 27.938843%)" offset="0.648438"/><stop stop-opacity="1" stop-color="rgb(100%, 49.404907%, 28.024292%)" offset="0.652344"/><stop stop-opacity="1" stop-color="rgb(100%, 49.69635%, 28.109741%)" offset="0.65625"/><stop stop-opacity="1" stop-color="rgb(100%, 49.987793%, 28.193665%)" offset="0.660156"/><stop stop-opacity="1" stop-color="rgb(100%, 50.279236%, 28.279114%)" offset="0.664063"/><stop stop-opacity="1" stop-color="rgb(100%, 50.570679%, 28.364563%)" offset="0.667969"/><stop stop-opacity="1" stop-color="rgb(100%, 50.862122%, 28.450012%)" offset="0.671875"/><stop stop-opacity="1" stop-color="rgb(100%, 51.153564%, 28.533936%)" offset="0.675781"/><stop stop-opacity="1" stop-color="rgb(100%, 51.445007%, 28.619385%)" offset="0.679688"/><stop stop-opacity="1" stop-color="rgb(100%, 51.734924%, 28.704834%)" offset="0.683594"/><stop stop-opacity="1" stop-color="rgb(100%, 52.026367%, 28.790283%)" offset="0.6875"/><stop stop-opacity="1" stop-color="rgb(100%, 52.31781%, 28.874207%)" offset="0.691406"/><stop stop-opacity="1" stop-color="rgb(100%, 52.609253%, 28.959656%)" offset="0.695312"/><stop stop-opacity="1" stop-color="rgb(100%, 52.900696%, 29.043579%)" offset="0.699219"/><stop stop-opacity="1" stop-color="rgb(100%, 53.192139%, 29.129028%)" offset="0.703125"/><stop stop-opacity="1" stop-color="rgb(100%, 53.483582%, 29.214478%)" offset="0.707031"/><stop stop-opacity="1" stop-color="rgb(100%, 53.775024%, 29.299927%)" offset="0.710938"/><stop stop-opacity="1" stop-color="rgb(100%, 54.066467%, 29.38385%)" offset="0.714844"/><stop stop-opacity="1" stop-color="rgb(100%, 54.35791%, 29.469299%)" offset="0.71875"/><stop stop-opacity="1" stop-color="rgb(100%, 54.649353%, 29.554749%)" offset="0.722656"/><stop stop-opacity="1" stop-color="rgb(100%, 54.940796%, 29.640198%)" offset="0.726562"/><stop stop-opacity="1" stop-color="rgb(100%, 55.232239%, 29.724121%)" offset="0.730469"/><stop stop-opacity="1" stop-color="rgb(100%, 55.523682%, 29.80957%)" offset="0.734375"/><stop stop-opacity="1" stop-color="rgb(100%, 55.815125%, 29.89502%)" offset="0.738281"/><stop stop-opacity="1" stop-color="rgb(100%, 56.106567%, 29.980469%)" offset="0.742188"/><stop stop-opacity="1" stop-color="rgb(100%, 56.39801%, 30.064392%)" offset="0.746094"/><stop stop-opacity="1" stop-color="rgb(100%, 56.689453%, 30.149841%)" offset="0.75"/><stop stop-opacity="1" stop-color="rgb(100%, 56.773376%, 30.174255%)" offset="1"/></linearGradient><clipPath id="d3809479ed"><rect x="0" width="261" y="0" height="149"/></clipPath><clipPath id="51b2c95ff9"><path d="M 0.714844 0 L 260.1875 0 L 260.1875 148.027344 L 0.714844 148.027344 Z M 0.714844 0 " clip-rule="nonzero"/></clipPath><clipPath id="78b5cad7bf"><rect x="0" width="261" y="0" height="149"/></clipPath><clipPath id="1f5c236225"><rect x="0" width="261" y="0" height="149"/></clipPath><mask id="6be12eff42"><g filter="url(#d27c8bf8a3)"><g transform="matrix(1, 0, 0, 1, -0.000000000000056843, 0)"><g clip-path="url(#1f5c236225)"><g clip-path="url(#51b2c95ff9)"><g transform="matrix(1, 0, 0, 1, -0.000000000000056843, 0)"><g clip-path="url(#78b5cad7bf)"><g fill="#000000" fill-opacity="1"><g transform="translate(71.681153, 81.372834)"><g><path d="M 5.96875 -16.109375 L 5.96875 -11.859375 L 13.5625 -11.859375 L 13.5625 -8.390625 L 5.96875 -8.390625 L 5.96875 -3.890625 L 15 -3.890625 L 15 0 L 1.484375 0 L 1.484375 -20 L 15 -20 L 15 -16.109375 Z M 5.96875 -16.109375 "/></g></g></g><g fill="#000000" fill-opacity="1"><g transform="translate(86.27845, 81.372834)"><g><path d="M 8.890625 0.25 C 7.285156 0.25 5.894531 -0.0625 4.71875 -0.6875 C 3.550781 -1.3125 2.664062 -2.132812 2.0625 -3.15625 C 1.46875 -4.175781 1.171875 -5.238281 1.171875 -6.34375 L 1.171875 -6.5625 L 6.0625 -6.5625 L 6.0625 -6.375 C 6.0625 -5.6875 6.304688 -5.054688 6.796875 -4.484375 C 7.296875 -3.910156 8.019531 -3.625 8.96875 -3.625 C 9.789062 -3.625 10.445312 -3.832031 10.9375 -4.25 C 11.4375 -4.675781 11.6875 -5.226562 11.6875 -5.90625 C 11.6875 -6.519531 11.46875 -7.007812 11.03125 -7.375 C 10.59375 -7.75 10.054688 -8.003906 9.421875 -8.140625 L 7.140625 -8.59375 C 5.804688 -8.894531 4.554688 -9.460938 3.390625 -10.296875 C 2.234375 -11.140625 1.65625 -12.515625 1.65625 -14.421875 C 1.65625 -15.660156 1.953125 -16.726562 2.546875 -17.625 C 3.148438 -18.519531 3.984375 -19.203125 5.046875 -19.671875 C 6.117188 -20.148438 7.332031 -20.390625 8.6875 -20.390625 C 10.226562 -20.390625 11.554688 -20.09375 12.671875 -19.5 C 13.796875 -18.914062 14.644531 -18.148438 15.21875 -17.203125 C 15.789062 -16.265625 16.078125 -15.28125 16.078125 -14.25 L 16.078125 -14.109375 L 11.203125 -14.109375 L 11.203125 -14.203125 C 11.203125 -14.804688 10.984375 -15.367188 10.546875 -15.890625 C 10.117188 -16.421875 9.441406 -16.6875 8.515625 -16.6875 C 7.785156 -16.6875 7.207031 -16.484375 6.78125 -16.078125 C 6.351562 -15.679688 6.140625 -15.160156 6.140625 -14.515625 C 6.140625 -13.878906 6.375 -13.378906 6.84375 -13.015625 C 7.320312 -12.660156 7.894531 -12.414062 8.5625 -12.28125 L 10.875 -11.765625 C 12.382812 -11.441406 13.671875 -10.832031 14.734375 -9.9375 C 15.804688 -9.039062 16.34375 -7.738281 16.34375 -6.03125 C 16.34375 -4.769531 16.015625 -3.660156 15.359375 -2.703125 C 14.710938 -1.753906 13.820312 -1.023438 12.6875 -0.515625 C 11.5625 -0.00390625 10.296875 0.25 8.890625 0.25 Z M 8.890625 0.25 "/></g></g></g><g fill="#000000" fill-opacity="1"><g transform="translate(101.875548, 81.372834)"><g><path d="M 15.9375 -16.109375 L 10.6875 -16.109375 L 10.6875 0 L 6.25 0 L 6.25 -16.109375 L 1 -16.109375 L 1 -20 L 15.9375 -20 Z M 15.9375 -16.109375 "/></g></g></g><g fill="#000000" fill-opacity="1"><g transform="translate(117.272686, 81.372834)"><g><path d="M 4.796875 0.25 C 4.085938 0.25 3.503906 0.015625 3.046875 -0.453125 C 2.597656 -0.929688 2.375 -1.515625 2.375 -2.203125 C 2.375 -2.890625 2.597656 -3.460938 3.046875 -3.921875 C 3.503906 -4.390625 4.085938 -4.625 4.796875 -4.625 C 5.503906 -4.625 6.085938 -4.390625 6.546875 -3.921875 C 7.015625 -3.460938 7.25 -2.890625 7.25 -2.203125 C 7.25 -1.515625 7.007812 -0.929688 6.53125 -0.453125 C 6.0625 0.015625 5.484375 0.25 4.796875 0.25 Z M 4.796875 0.25 "/></g></g></g><g fill="#000000" fill-opacity="1"><g transform="translate(125.299781, 81.372834)"><g><path d="M 1.59375 -3.765625 L 4.234375 -6.03125 C 4.535156 -6.269531 4.820312 -6.503906 5.09375 -6.734375 C 5.375 -6.960938 5.644531 -7.179688 5.90625 -7.390625 C 7.1875 -8.421875 8.164062 -9.242188 8.84375 -9.859375 C 9.519531 -10.484375 10.082031 -11.140625 10.53125 -11.828125 C 10.976562 -12.523438 11.203125 -13.25 11.203125 -14 C 11.203125 -14.71875 10.976562 -15.332031 10.53125 -15.84375 C 10.09375 -16.363281 9.429688 -16.625 8.546875 -16.625 C 7.398438 -16.625 6.648438 -16.289062 6.296875 -15.625 C 5.941406 -14.957031 5.765625 -14.269531 5.765625 -13.5625 L 5.765625 -13.203125 L 1.40625 -13.203125 C 1.40625 -14.722656 1.703125 -16.03125 2.296875 -17.125 C 2.898438 -18.21875 3.734375 -19.039062 4.796875 -19.59375 C 5.859375 -20.144531 7.078125 -20.421875 8.453125 -20.421875 C 9.878906 -20.421875 11.113281 -20.148438 12.15625 -19.609375 C 13.207031 -19.066406 14.007812 -18.328125 14.5625 -17.390625 C 15.113281 -16.460938 15.390625 -15.414062 15.390625 -14.25 C 15.390625 -13.144531 15.160156 -12.144531 14.703125 -11.25 C 14.253906 -10.351562 13.710938 -9.582031 13.078125 -8.9375 C 12.453125 -8.289062 11.644531 -7.554688 10.65625 -6.734375 L 10.03125 -6.234375 L 7.375 -4 L 7.375 -3.859375 L 15.53125 -3.859375 L 15.53125 0 L 1.59375 0 Z M 1.59375 -3.765625 "/></g></g></g><g fill="#000000" fill-opacity="1"><g transform="translate(140.811192, 81.372834)"><g><path d="M 8.90625 0.421875 C 6.238281 0.421875 4.257812 -0.429688 2.96875 -2.140625 C 1.675781 -3.859375 1.03125 -6.132812 1.03125 -8.96875 L 1.03125 -11.078125 C 1.03125 -13.898438 1.675781 -16.148438 2.96875 -17.828125 C 4.257812 -19.515625 6.238281 -20.359375 8.90625 -20.359375 C 11.570312 -20.359375 13.546875 -19.515625 14.828125 -17.828125 C 16.117188 -16.148438 16.765625 -13.898438 16.765625 -11.078125 L 16.765625 -8.96875 C 16.765625 -6.132812 16.117188 -3.859375 14.828125 -2.140625 C 13.546875 -0.429688 11.570312 0.421875 8.90625 0.421875 Z M 8.90625 -3.40625 C 9.9375 -3.40625 10.671875 -3.847656 11.109375 -4.734375 C 11.546875 -5.628906 11.765625 -6.957031 11.765625 -8.71875 L 11.765625 -11.34375 C 11.765625 -13.070312 11.546875 -14.367188 11.109375 -15.234375 C 10.671875 -16.097656 9.9375 -16.53125 8.90625 -16.53125 C 7.882812 -16.53125 7.148438 -16.097656 6.703125 -15.234375 C 6.253906 -14.367188 6.03125 -13.070312 6.03125 -11.34375 L 6.03125 -8.71875 C 6.03125 -6.976562 6.253906 -5.65625 6.703125 -4.75 C 7.148438 -3.851562 7.882812 -3.40625 8.90625 -3.40625 Z M 8.90625 -3.40625 "/></g></g></g><g fill="#000000" fill-opacity="1"><g transform="translate(157.150992, 81.372834)"><g><path d="M 1.59375 -3.765625 L 4.234375 -6.03125 C 4.535156 -6.269531 4.820312 -6.503906 5.09375 -6.734375 C 5.375 -6.960938 5.644531 -7.179688 5.90625 -7.390625 C 7.1875 -8.421875 8.164062 -9.242188 8.84375 -9.859375 C 9.519531 -10.484375 10.082031 -11.140625 10.53125 -11.828125 C 10.976562 -12.523438 11.203125 -13.25 11.203125 -14 C 11.203125 -14.71875 10.976562 -15.332031 10.53125 -15.84375 C 10.09375 -16.363281 9.429688 -16.625 8.546875 -16.625 C 7.398438 -16.625 6.648438 -16.289062 6.296875 -15.625 C 5.941406 -14.957031 5.765625 -14.269531 5.765625 -13.5625 L 5.765625 -13.203125 L 1.40625 -13.203125 C 1.40625 -14.722656 1.703125 -16.03125 2.296875 -17.125 C 2.898438 -18.21875 3.734375 -19.039062 4.796875 -19.59375 C 5.859375 -20.144531 7.078125 -20.421875 8.453125 -20.421875 C 9.878906 -20.421875 11.113281 -20.148438 12.15625 -19.609375 C 13.207031 -19.066406 14.007812 -18.328125 14.5625 -17.390625 C 15.113281 -16.460938 15.390625 -15.414062 15.390625 -14.25 C 15.390625 -13.144531 15.160156 -12.144531 14.703125 -11.25 C 14.253906 -10.351562 13.710938 -9.582031 13.078125 -8.9375 C 12.453125 -8.289062 11.644531 -7.554688 10.65625 -6.734375 L 10.03125 -6.234375 L 7.375 -4 L 7.375 -3.859375 L 15.53125 -3.859375 L 15.53125 0 L 1.59375 0 Z M 1.59375 -3.765625 "/></g></g></g><g fill="#000000" fill-opacity="1"><g transform="translate(172.662403, 81.372834)"><g><path d="M 8.5625 0.25 C 7.21875 0.25 5.976562 -0.0195312 4.84375 -0.5625 C 3.707031 -1.101562 2.796875 -1.914062 2.109375 -3 C 1.421875 -4.082031 1.078125 -5.414062 1.078125 -7 C 1.078125 -8.5 1.347656 -9.875 1.890625 -11.125 C 2.441406 -12.375 3.179688 -13.722656 4.109375 -15.171875 L 7.21875 -20 L 11.546875 -20 L 5.96875 -11.59375 L 6.0625 -11.515625 L 6.484375 -11.875 C 6.921875 -12.300781 7.394531 -12.628906 7.90625 -12.859375 C 8.425781 -13.097656 9.09375 -13.21875 9.90625 -13.21875 C 11.144531 -13.21875 12.210938 -12.925781 13.109375 -12.34375 C 14.003906 -11.769531 14.6875 -10.984375 15.15625 -9.984375 C 15.625 -8.984375 15.859375 -7.875 15.859375 -6.65625 C 15.859375 -5.164062 15.523438 -3.894531 14.859375 -2.84375 C 14.203125 -1.800781 13.320312 -1.023438 12.21875 -0.515625 C 11.113281 -0.00390625 9.894531 0.25 8.5625 0.25 Z M 8.390625 -3.25 C 9.441406 -3.25 10.226562 -3.59375 10.75 -4.28125 C 11.28125 -4.96875 11.546875 -5.757812 11.546875 -6.65625 C 11.546875 -7.550781 11.28125 -8.335938 10.75 -9.015625 C 10.226562 -9.703125 9.441406 -10.046875 8.390625 -10.046875 C 7.390625 -10.046875 6.625 -9.707031 6.09375 -9.03125 C 5.570312 -8.363281 5.3125 -7.570312 5.3125 -6.65625 C 5.3125 -5.78125 5.570312 -4.992188 6.09375 -4.296875 C 6.625 -3.597656 7.390625 -3.25 8.390625 -3.25 Z M 8.390625 -3.25 "/></g></g></g></g></g></g></g></g></g></mask><clipPath id="b849b888d0"><path d="M 14.996094 0 L 245.902344 0 L 245.902344 148.027344 L 14.996094 148.027344 Z M 14.996094 0 " clip-rule="nonzero"/></clipPath><clipPath id="9f063dedab"><rect x="0" width="261" y="0" height="149"/></clipPath><clipPath id="ec01c1e514"><rect x="0" width="261" y="0" height="149"/></clipPath><clipPath id="5e268e546c"><rect x="0" width="261" y="0" height="149"/></clipPath><clipPath id="1bf246132f"><path d="M 0.554688 0 L 749.445312 0 L 749.445312 337 L 0.554688 337 Z M 0.554688 0 " clip-rule="nonzero"/></clipPath><clipPath id="325963686f"><path d="M 0.554688 0 L 749.445312 0 L 749.445312 337 L 0.554688 337 Z M 0.554688 0 " clip-rule="nonzero"/></clipPath><clipPath id="16e4eefc3e"><path d="M 0.554688 0 L 749.445312 0 L 749.445312 337 L 0.554688 337 Z M 0.554688 0 " clip-rule="nonzero"/></clipPath><clipPath id="2b87c44545"><path d="M 0.554688 0 L 744.726562 0 L 744.726562 337 L 0.554688 337 Z M 0.554688 0 " clip-rule="nonzero"/></clipPath><linearGradient x1="-4.073152" gradientTransform="matrix(0.748993, 0, 0, 0.749077, 3.605503, 16.396753)" y1="186" x2="989.48996" gradientUnits="userSpaceOnUse" y2="186" id="ae684e4de4"><stop stop-opacity="1" stop-color="rgb(100%, 19.219971%, 19.219971%)" offset="0"/><stop stop-opacity="1" stop-color="rgb(100%, 19.261169%, 19.230652%)" offset="0.03125"/><stop stop-opacity="1" stop-color="rgb(100%, 19.641113%, 19.342041%)" offset="0.0351562"/><stop stop-opacity="1" stop-color="rgb(100%, 19.981384%, 19.441223%)" offset="0.0390625"/><stop stop-opacity="1" stop-color="rgb(100%, 20.320129%, 19.540405%)" offset="0.0429688"/><stop stop-opacity="1" stop-color="rgb(100%, 20.6604%, 19.639587%)" offset="0.046875"/><stop stop-opacity="1" stop-color="rgb(100%, 20.999146%, 19.73877%)" offset="0.0507812"/><stop stop-opacity="1" stop-color="rgb(100%, 21.339417%, 19.837952%)" offset="0.0546875"/><stop stop-opacity="1" stop-color="rgb(100%, 21.678162%, 19.937134%)" offset="0.0585938"/><stop stop-opacity="1" stop-color="rgb(100%, 22.018433%, 20.036316%)" offset="0.0625"/><stop stop-opacity="1" stop-color="rgb(100%, 22.358704%, 20.135498%)" offset="0.0664062"/><stop stop-opacity="1" stop-color="rgb(100%, 22.698975%, 20.23468%)" offset="0.0703125"/><stop stop-opacity="1" stop-color="rgb(100%, 23.03772%, 20.332336%)" offset="0.0742188"/><stop stop-opacity="1" stop-color="rgb(100%, 23.377991%, 20.431519%)" offset="0.078125"/><stop stop-opacity="1" stop-color="rgb(100%, 23.716736%, 20.530701%)" offset="0.0820312"/><stop stop-opacity="1" stop-color="rgb(100%, 24.057007%, 20.629883%)" offset="0.0859375"/><stop stop-opacity="1" stop-color="rgb(100%, 24.395752%, 20.729065%)" offset="0.0898438"/><stop stop-opacity="1" stop-color="rgb(100%, 24.736023%, 20.828247%)" offset="0.09375"/><stop stop-opacity="1" stop-color="rgb(100%, 25.074768%, 20.927429%)" offset="0.0976563"/><stop stop-opacity="1" stop-color="rgb(100%, 25.415039%, 21.026611%)" offset="0.101563"/><stop stop-opacity="1" stop-color="rgb(100%, 25.753784%, 21.125793%)" offset="0.105469"/><stop stop-opacity="1" stop-color="rgb(100%, 26.094055%, 21.224976%)" offset="0.109375"/><stop stop-opacity="1" stop-color="rgb(100%, 26.434326%, 21.324158%)" offset="0.113281"/><stop stop-opacity="1" stop-color="rgb(100%, 26.774597%, 21.42334%)" offset="0.117188"/><stop stop-opacity="1" stop-color="rgb(100%, 27.113342%, 21.522522%)" offset="0.121094"/><stop stop-opacity="1" stop-color="rgb(100%, 27.453613%, 21.621704%)" offset="0.125"/><stop stop-opacity="1" stop-color="rgb(100%, 27.792358%, 21.71936%)" offset="0.128906"/><stop stop-opacity="1" stop-color="rgb(100%, 28.132629%, 21.818542%)" offset="0.132812"/><stop stop-opacity="1" stop-color="rgb(100%, 28.471375%, 21.917725%)" offset="0.136719"/><stop stop-opacity="1" stop-color="rgb(100%, 28.811646%, 22.016907%)" offset="0.140625"/><stop stop-opacity="1" stop-color="rgb(100%, 29.150391%, 22.116089%)" offset="0.144531"/><stop stop-opacity="1" stop-color="rgb(100%, 29.490662%, 22.215271%)" offset="0.148438"/><stop stop-opacity="1" stop-color="rgb(100%, 29.829407%, 22.314453%)" offset="0.152344"/><stop stop-opacity="1" stop-color="rgb(100%, 30.169678%, 22.413635%)" offset="0.15625"/><stop stop-opacity="1" stop-color="rgb(100%, 30.508423%, 22.512817%)" offset="0.160156"/><stop stop-opacity="1" stop-color="rgb(100%, 30.848694%, 22.612%)" offset="0.164062"/><stop stop-opacity="1" stop-color="rgb(100%, 31.188965%, 22.711182%)" offset="0.167969"/><stop stop-opacity="1" stop-color="rgb(100%, 31.529236%, 22.810364%)" offset="0.171875"/><stop stop-opacity="1" stop-color="rgb(100%, 31.867981%, 22.909546%)" offset="0.175781"/><stop stop-opacity="1" stop-color="rgb(100%, 32.208252%, 23.008728%)" offset="0.179688"/><stop stop-opacity="1" stop-color="rgb(100%, 32.546997%, 23.10791%)" offset="0.183594"/><stop stop-opacity="1" stop-color="rgb(100%, 32.887268%, 23.207092%)" offset="0.1875"/><stop stop-opacity="1" stop-color="rgb(100%, 33.226013%, 23.304749%)" offset="0.191406"/><stop stop-opacity="1" stop-color="rgb(100%, 33.566284%, 23.403931%)" offset="0.195313"/><stop stop-opacity="1" stop-color="rgb(100%, 33.905029%, 23.503113%)" offset="0.199219"/><stop stop-opacity="1" stop-color="rgb(100%, 34.2453%, 23.602295%)" offset="0.203125"/><stop stop-opacity="1" stop-color="rgb(100%, 34.584045%, 23.701477%)" offset="0.207031"/><stop stop-opacity="1" stop-color="rgb(100%, 34.924316%, 23.800659%)" offset="0.210938"/><stop stop-opacity="1" stop-color="rgb(100%, 35.264587%, 23.899841%)" offset="0.214844"/><stop stop-opacity="1" stop-color="rgb(100%, 35.604858%, 23.999023%)" offset="0.21875"/><stop stop-opacity="1" stop-color="rgb(100%, 35.943604%, 24.098206%)" offset="0.222656"/><stop stop-opacity="1" stop-color="rgb(100%, 36.283875%, 24.197388%)" offset="0.226562"/><stop stop-opacity="1" stop-color="rgb(100%, 36.62262%, 24.29657%)" offset="0.230469"/><stop stop-opacity="1" stop-color="rgb(100%, 36.962891%, 24.395752%)" offset="0.234375"/><stop stop-opacity="1" stop-color="rgb(100%, 37.301636%, 24.494934%)" offset="0.238281"/><stop stop-opacity="1" stop-color="rgb(100%, 37.641907%, 24.594116%)" offset="0.242188"/><stop stop-opacity="1" stop-color="rgb(100%, 37.980652%, 24.691772%)" offset="0.246094"/><stop stop-opacity="1" stop-color="rgb(100%, 38.320923%, 24.790955%)" offset="0.25"/><stop stop-opacity="1" stop-color="rgb(100%, 38.659668%, 24.890137%)" offset="0.253906"/><stop stop-opacity="1" stop-color="rgb(100%, 38.999939%, 24.989319%)" offset="0.257812"/><stop stop-opacity="1" stop-color="rgb(100%, 39.34021%, 25.088501%)" offset="0.261719"/><stop stop-opacity="1" stop-color="rgb(100%, 39.680481%, 25.187683%)" offset="0.265625"/><stop stop-opacity="1" stop-color="rgb(100%, 40.019226%, 25.286865%)" offset="0.269531"/><stop stop-opacity="1" stop-color="rgb(100%, 40.359497%, 25.386047%)" offset="0.273438"/><stop stop-opacity="1" stop-color="rgb(100%, 40.698242%, 25.485229%)" offset="0.277344"/><stop stop-opacity="1" stop-color="rgb(100%, 41.038513%, 25.584412%)" offset="0.28125"/><stop stop-opacity="1" stop-color="rgb(100%, 41.377258%, 25.683594%)" offset="0.285156"/><stop stop-opacity="1" stop-color="rgb(100%, 41.717529%, 25.782776%)" offset="0.289062"/><stop stop-opacity="1" stop-color="rgb(100%, 42.056274%, 25.881958%)" offset="0.292969"/><stop stop-opacity="1" stop-color="rgb(100%, 42.396545%, 25.98114%)" offset="0.296875"/><stop stop-opacity="1" stop-color="rgb(100%, 42.735291%, 26.078796%)" offset="0.300781"/><stop stop-opacity="1" stop-color="rgb(100%, 43.075562%, 26.177979%)" offset="0.304688"/><stop stop-opacity="1" stop-color="rgb(100%, 43.415833%, 26.277161%)" offset="0.308594"/><stop stop-opacity="1" stop-color="rgb(100%, 43.756104%, 26.376343%)" offset="0.3125"/><stop stop-opacity="1" stop-color="rgb(100%, 44.094849%, 26.475525%)" offset="0.316406"/><stop stop-opacity="1" stop-color="rgb(100%, 44.43512%, 26.574707%)" offset="0.320312"/><stop stop-opacity="1" stop-color="rgb(100%, 44.773865%, 26.673889%)" offset="0.324219"/><stop stop-opacity="1" stop-color="rgb(100%, 45.114136%, 26.773071%)" offset="0.328125"/><stop stop-opacity="1" stop-color="rgb(100%, 45.452881%, 26.872253%)" offset="0.332031"/><stop stop-opacity="1" stop-color="rgb(100%, 45.793152%, 26.971436%)" offset="0.335937"/><stop stop-opacity="1" stop-color="rgb(100%, 46.131897%, 27.070618%)" offset="0.339844"/><stop stop-opacity="1" stop-color="rgb(100%, 46.472168%, 27.1698%)" offset="0.34375"/><stop stop-opacity="1" stop-color="rgb(100%, 46.810913%, 27.268982%)" offset="0.347656"/><stop stop-opacity="1" stop-color="rgb(100%, 47.151184%, 27.368164%)" offset="0.351562"/><stop stop-opacity="1" stop-color="rgb(100%, 47.491455%, 27.46582%)" offset="0.355469"/><stop stop-opacity="1" stop-color="rgb(100%, 47.831726%, 27.565002%)" offset="0.359375"/><stop stop-opacity="1" stop-color="rgb(100%, 48.170471%, 27.664185%)" offset="0.363281"/><stop stop-opacity="1" stop-color="rgb(100%, 48.510742%, 27.763367%)" offset="0.367187"/><stop stop-opacity="1" stop-color="rgb(100%, 48.849487%, 27.862549%)" offset="0.371094"/><stop stop-opacity="1" stop-color="rgb(100%, 49.189758%, 27.961731%)" offset="0.375"/><stop stop-opacity="1" stop-color="rgb(100%, 49.528503%, 28.060913%)" offset="0.378906"/><stop stop-opacity="1" stop-color="rgb(100%, 49.868774%, 28.160095%)" offset="0.382812"/><stop stop-opacity="1" stop-color="rgb(100%, 50.20752%, 28.259277%)" offset="0.386719"/><stop stop-opacity="1" stop-color="rgb(100%, 50.547791%, 28.358459%)" offset="0.390625"/><stop stop-opacity="1" stop-color="rgb(100%, 50.886536%, 28.457642%)" offset="0.394531"/><stop stop-opacity="1" stop-color="rgb(100%, 51.226807%, 28.556824%)" offset="0.398438"/><stop stop-opacity="1" stop-color="rgb(100%, 51.567078%, 28.656006%)" offset="0.402344"/><stop stop-opacity="1" stop-color="rgb(100%, 51.907349%, 28.755188%)" offset="0.40625"/><stop stop-opacity="1" stop-color="rgb(100%, 52.246094%, 28.852844%)" offset="0.410156"/><stop stop-opacity="1" stop-color="rgb(100%, 52.586365%, 28.952026%)" offset="0.414062"/><stop stop-opacity="1" stop-color="rgb(100%, 52.92511%, 29.051208%)" offset="0.417969"/><stop stop-opacity="1" stop-color="rgb(100%, 53.265381%, 29.150391%)" offset="0.421875"/><stop stop-opacity="1" stop-color="rgb(100%, 53.604126%, 29.249573%)" offset="0.425781"/><stop stop-opacity="1" stop-color="rgb(100%, 53.944397%, 29.348755%)" offset="0.429687"/><stop stop-opacity="1" stop-color="rgb(100%, 54.283142%, 29.447937%)" offset="0.433594"/><stop stop-opacity="1" stop-color="rgb(100%, 54.623413%, 29.547119%)" offset="0.4375"/><stop stop-opacity="1" stop-color="rgb(100%, 54.962158%, 29.646301%)" offset="0.441406"/><stop stop-opacity="1" stop-color="rgb(100%, 55.302429%, 29.745483%)" offset="0.445312"/><stop stop-opacity="1" stop-color="rgb(100%, 55.6427%, 29.844666%)" offset="0.449219"/><stop stop-opacity="1" stop-color="rgb(100%, 55.982971%, 29.943848%)" offset="0.453125"/><stop stop-opacity="1" stop-color="rgb(100%, 56.321716%, 30.04303%)" offset="0.457031"/><stop stop-opacity="1" stop-color="rgb(100%, 56.661987%, 30.142212%)" offset="0.460937"/><stop stop-opacity="1" stop-color="rgb(100%, 56.759644%, 30.169678%)" offset="0.46875"/><stop stop-opacity="1" stop-color="rgb(100%, 56.858826%, 30.198669%)" offset="0.5"/><stop stop-opacity="1" stop-color="rgb(100%, 56.858826%, 30.198669%)" offset="1"/></linearGradient><clipPath id="3a12a0b0b0"><rect x="0" width="750" y="0" height="337"/></clipPath><clipPath id="aac096248e"><path d="M 0.554688 0 L 749.445312 0 L 749.445312 337 L 0.554688 337 Z M 0.554688 0 " clip-rule="nonzero"/></clipPath><clipPath id="58ff30eca0"><rect x="0" width="750" y="0" height="337"/></clipPath><clipPath id="16b72805d2"><rect x="0" width="750" y="0" height="337"/></clipPath><mask id="b4894dbc1b"><g filter="url(#d27c8bf8a3)"><g><g clip-path="url(#16b72805d2)"><g clip-path="url(#aac096248e)"><g><g clip-path="url(#58ff30eca0)"><g fill="#000000" fill-opacity="1"><g transform="translate(22.820414, 198.037351)"><g><path d="M 112.4375 -32.359375 L 112.828125 -32.359375 L 134 -106.84375 C 135.863281 -113.894531 136.796875 -118.554688 136.796875 -120.828125 C 136.796875 -124.421875 135.765625 -127.046875 133.703125 -128.703125 C 131.640625 -130.367188 129.078125 -131.203125 126.015625 -131.203125 L 120.21875 -131.203125 L 121.21875 -134.796875 L 166.75 -134.796875 L 166.75 -131.203125 C 160.757812 -131.203125 156.234375 -130.367188 153.171875 -128.703125 C 150.109375 -127.046875 147.8125 -124.550781 146.28125 -121.21875 C 144.75 -117.894531 142.921875 -112.503906 140.796875 -105.046875 L 109.84375 3.1875 L 106.84375 3.1875 L 60.703125 -111.640625 L 60.3125 -111.640625 L 36.9375 -29.15625 C 35.613281 -24.5 34.679688 -21.035156 34.140625 -18.765625 C 33.609375 -16.503906 33.34375 -14.84375 33.34375 -13.78125 C 33.34375 -9.78125 34.773438 -7.082031 37.640625 -5.6875 C 40.503906 -4.289062 44.265625 -3.59375 48.921875 -3.59375 L 47.921875 0 L 3.59375 0 L 3.59375 -3.59375 L 6.390625 -3.59375 C 13.046875 -3.59375 17.9375 -5.625 21.0625 -9.6875 C 24.195312 -13.75 26.828125 -19.570312 28.953125 -27.15625 L 55.921875 -121.625 C 54.191406 -125.613281 51.460938 -128.207031 47.734375 -129.40625 C 44.003906 -130.601562 39.476562 -131.203125 34.15625 -131.203125 L 35.140625 -134.796875 L 71.5 -134.796875 Z M 112.4375 -32.359375 "/></g></g></g><g fill="#000000" fill-opacity="1"><g transform="translate(162.808888, 198.037351)"><g><path d="M 92.859375 -131.203125 C 87.929688 -131.203125 83.96875 -130.300781 80.96875 -128.5 C 77.976562 -126.707031 75.617188 -124.144531 73.890625 -120.8125 C 72.160156 -117.488281 70.492188 -112.898438 68.890625 -107.046875 L 46.328125 -27.953125 C 46.066406 -27.160156 45.46875 -25.234375 44.53125 -22.171875 C 43.601562 -19.109375 43.140625 -16.3125 43.140625 -13.78125 C 43.140625 -9.914062 44.46875 -7.25 47.125 -5.78125 C 49.789062 -4.320312 53.382812 -3.59375 57.90625 -3.59375 L 56.921875 0 L 2.59375 0 L 2.59375 -3.59375 C 8.050781 -3.726562 12.210938 -4.726562 15.078125 -6.59375 C 17.941406 -8.457031 20.070312 -11.019531 21.46875 -14.28125 C 22.863281 -17.539062 24.628906 -22.960938 26.765625 -30.546875 L 48.734375 -107.046875 C 50.859375 -114.628906 51.921875 -119.351562 51.921875 -121.21875 C 51.921875 -125.34375 50.421875 -128.035156 47.421875 -129.296875 C 44.429688 -130.566406 40.472656 -131.203125 35.546875 -131.203125 L 36.546875 -134.796875 L 93.859375 -134.796875 Z M 92.859375 -131.203125 "/></g></g></g><g fill="#000000" fill-opacity="1"><g transform="translate(225.71361, 198.037351)"><g><path d="M 100.046875 -131.203125 L 98.65625 -131.203125 C 92.789062 -131.203125 88.296875 -130.503906 85.171875 -129.109375 C 82.046875 -127.710938 79.679688 -125.582031 78.078125 -122.71875 C 76.484375 -119.851562 74.890625 -115.691406 73.296875 -110.234375 L 47.734375 -21.5625 C 46.796875 -18.101562 46.328125 -15.507812 46.328125 -13.78125 C 46.328125 -11.914062 46.957031 -10.382812 48.21875 -9.1875 C 49.488281 -7.988281 52.253906 -7.390625 56.515625 -7.390625 L 76.890625 -7.390625 C 86.335938 -7.390625 94.191406 -8.453125 100.453125 -10.578125 C 106.710938 -12.710938 111.90625 -15.941406 116.03125 -20.265625 C 120.15625 -24.597656 123.75 -30.425781 126.8125 -37.75 L 130.609375 -37.75 L 117.625 0 L 3.390625 0 L 3.390625 -3.59375 C 10.316406 -3.59375 15.609375 -4.921875 19.265625 -7.578125 C 22.929688 -10.242188 25.828125 -15.238281 27.953125 -22.5625 L 51.921875 -106.640625 C 54.054688 -114.234375 55.125 -119.09375 55.125 -121.21875 C 55.125 -125.613281 53.554688 -128.375 50.421875 -129.5 C 47.296875 -130.632812 43.40625 -131.203125 38.75 -131.203125 L 39.9375 -134.796875 L 101.25 -134.796875 Z M 100.046875 -131.203125 "/></g></g></g></g></g></g></g></g></g></mask><clipPath id="5a284d0693"><path d="M 0.554688 0 L 744.726562 0 L 744.726562 337 L 0.554688 337 Z M 0.554688 0 " clip-rule="nonzero"/></clipPath><clipPath id="44f9bc0480"><rect x="0" width="750" y="0" height="337"/></clipPath><clipPath id="2d25cf1555"><rect x="0" width="750" y="0" height="337"/></clipPath><clipPath id="05ef8966dd"><rect x="0" width="750" y="0" height="337"/></clipPath><clipPath id="9adacbea2c"><rect x="0" width="750" y="0" height="337"/></clipPath><clipPath id="32943336e2"><path d="M 0.554688 209.699219 L 749.445312 209.699219 L 749.445312 337 L 0.554688 337 Z M 0.554688 209.699219 " clip-rule="nonzero"/></clipPath><clipPath id="64d4382770"><path d="M 0.554688 0.699219 L 749.445312 0.699219 L 749.445312 128 L 0.554688 128 Z M 0.554688 0.699219 " clip-rule="nonzero"/></clipPath><clipPath id="f6c0d0f571"><path d="M 84.070312 0.699219 L 665.199219 0.699219 L 665.199219 128 L 84.070312 128 Z M 84.070312 0.699219 " clip-rule="nonzero"/></clipPath><linearGradient x1="80.809998" gradientTransform="matrix(0.749251, 0, 0, 0.749287, 23.523006, 47.869731)" y1="22" x2="856.424008" gradientUnits="userSpaceOnUse" y2="22" id="9d193fb14c"><stop stop-opacity="1" stop-color="rgb(65.098572%, 65.098572%, 65.098572%)" offset="0"/><stop stop-opacity="1" stop-color="rgb(65.098572%, 65.098572%, 65.098572%)" offset="0.0625"/><stop stop-opacity="1" stop-color="rgb(65.098572%, 65.098572%, 65.098572%)" offset="0.078125"/><stop stop-opacity="1" stop-color="rgb(65.197754%, 65.197754%, 65.197754%)" offset="0.0859375"/><stop stop-opacity="1" stop-color="rgb(65.460205%, 65.460205%, 65.460205%)" offset="0.09375"/><stop stop-opacity="1" stop-color="rgb(65.785217%, 65.785217%, 65.785217%)" offset="0.101562"/><stop stop-opacity="1" stop-color="rgb(66.111755%, 66.111755%, 66.111755%)" offset="0.109375"/><stop stop-opacity="1" stop-color="rgb(66.436768%, 66.436768%, 66.436768%)" offset="0.117187"/><stop stop-opacity="1" stop-color="rgb(66.76178%, 66.76178%, 66.76178%)" offset="0.125"/><stop stop-opacity="1" stop-color="rgb(67.088318%, 67.088318%, 67.088318%)" offset="0.132812"/><stop stop-opacity="1" stop-color="rgb(67.41333%, 67.41333%, 67.41333%)" offset="0.140625"/><stop stop-opacity="1" stop-color="rgb(67.738342%, 67.738342%, 67.738342%)" offset="0.148438"/><stop stop-opacity="1" stop-color="rgb(68.063354%, 68.063354%, 68.063354%)" offset="0.15625"/><stop stop-opacity="1" stop-color="rgb(68.389893%, 68.389893%, 68.389893%)" offset="0.164062"/><stop stop-opacity="1" stop-color="rgb(68.714905%, 68.714905%, 68.714905%)" offset="0.171875"/><stop stop-opacity="1" stop-color="rgb(69.039917%, 69.039917%, 69.039917%)" offset="0.179688"/><stop stop-opacity="1" stop-color="rgb(69.366455%, 69.366455%, 69.366455%)" offset="0.1875"/><stop stop-opacity="1" stop-color="rgb(69.691467%, 69.691467%, 69.691467%)" offset="0.195312"/><stop stop-opacity="1" stop-color="rgb(70.016479%, 70.016479%, 70.016479%)" offset="0.203125"/><stop stop-opacity="1" stop-color="rgb(70.343018%, 70.343018%, 70.343018%)" offset="0.210938"/><stop stop-opacity="1" stop-color="rgb(70.66803%, 70.66803%, 70.66803%)" offset="0.21875"/><stop stop-opacity="1" stop-color="rgb(70.993042%, 70.993042%, 70.993042%)" offset="0.226562"/><stop stop-opacity="1" stop-color="rgb(71.31958%, 71.31958%, 71.31958%)" offset="0.234375"/><stop stop-opacity="1" stop-color="rgb(71.644592%, 71.644592%, 71.644592%)" offset="0.242187"/><stop stop-opacity="1" stop-color="rgb(71.969604%, 71.969604%, 71.969604%)" offset="0.25"/><stop stop-opacity="1" stop-color="rgb(72.296143%, 72.296143%, 72.296143%)" offset="0.257812"/><stop stop-opacity="1" stop-color="rgb(72.621155%, 72.621155%, 72.621155%)" offset="0.265625"/><stop stop-opacity="1" stop-color="rgb(72.946167%, 72.946167%, 72.946167%)" offset="0.273438"/><stop stop-opacity="1" stop-color="rgb(73.272705%, 73.272705%, 73.272705%)" offset="0.28125"/><stop stop-opacity="1" stop-color="rgb(73.597717%, 73.597717%, 73.597717%)" offset="0.289062"/><stop stop-opacity="1" stop-color="rgb(73.922729%, 73.922729%, 73.922729%)" offset="0.296875"/><stop stop-opacity="1" stop-color="rgb(74.249268%, 74.249268%, 74.249268%)" offset="0.304688"/><stop stop-opacity="1" stop-color="rgb(74.57428%, 74.57428%, 74.57428%)" offset="0.3125"/><stop stop-opacity="1" stop-color="rgb(74.899292%, 74.899292%, 74.899292%)" offset="0.320313"/><stop stop-opacity="1" stop-color="rgb(75.224304%, 75.224304%, 75.224304%)" offset="0.328125"/><stop stop-opacity="1" stop-color="rgb(75.550842%, 75.550842%, 75.550842%)" offset="0.335938"/><stop stop-opacity="1" stop-color="rgb(75.875854%, 75.875854%, 75.875854%)" offset="0.34375"/><stop stop-opacity="1" stop-color="rgb(76.200867%, 76.200867%, 76.200867%)" offset="0.351563"/><stop stop-opacity="1" stop-color="rgb(76.527405%, 76.527405%, 76.527405%)" offset="0.359375"/><stop stop-opacity="1" stop-color="rgb(76.852417%, 76.852417%, 76.852417%)" offset="0.367188"/><stop stop-opacity="1" stop-color="rgb(77.177429%, 77.177429%, 77.177429%)" offset="0.375"/><stop stop-opacity="1" stop-color="rgb(77.503967%, 77.503967%, 77.503967%)" offset="0.382812"/><stop stop-opacity="1" stop-color="rgb(77.828979%, 77.828979%, 77.828979%)" offset="0.390625"/><stop stop-opacity="1" stop-color="rgb(78.153992%, 78.153992%, 78.153992%)" offset="0.398437"/><stop stop-opacity="1" stop-color="rgb(78.48053%, 78.48053%, 78.48053%)" offset="0.40625"/><stop stop-opacity="1" stop-color="rgb(78.805542%, 78.805542%, 78.805542%)" offset="0.414062"/><stop stop-opacity="1" stop-color="rgb(79.130554%, 79.130554%, 79.130554%)" offset="0.421875"/><stop stop-opacity="1" stop-color="rgb(79.457092%, 79.457092%, 79.457092%)" offset="0.429687"/><stop stop-opacity="1" stop-color="rgb(79.782104%, 79.782104%, 79.782104%)" offset="0.4375"/><stop stop-opacity="1" stop-color="rgb(80.107117%, 80.107117%, 80.107117%)" offset="0.445312"/><stop stop-opacity="1" stop-color="rgb(80.433655%, 80.433655%, 80.433655%)" offset="0.453125"/><stop stop-opacity="1" stop-color="rgb(80.758667%, 80.758667%, 80.758667%)" offset="0.460937"/><stop stop-opacity="1" stop-color="rgb(81.083679%, 81.083679%, 81.083679%)" offset="0.46875"/><stop stop-opacity="1" stop-color="rgb(81.408691%, 81.408691%, 81.408691%)" offset="0.476562"/><stop stop-opacity="1" stop-color="rgb(81.735229%, 81.735229%, 81.735229%)" offset="0.484375"/><stop stop-opacity="1" stop-color="rgb(82.060242%, 82.060242%, 82.060242%)" offset="0.492188"/><stop stop-opacity="1" stop-color="rgb(82.385254%, 82.385254%, 82.385254%)" offset="0.5"/><stop stop-opacity="1" stop-color="rgb(82.711792%, 82.711792%, 82.711792%)" offset="0.507812"/><stop stop-opacity="1" stop-color="rgb(83.036804%, 83.036804%, 83.036804%)" offset="0.515625"/><stop stop-opacity="1" stop-color="rgb(83.361816%, 83.361816%, 83.361816%)" offset="0.523438"/><stop stop-opacity="1" stop-color="rgb(83.688354%, 83.688354%, 83.688354%)" offset="0.53125"/><stop stop-opacity="1" stop-color="rgb(84.013367%, 84.013367%, 84.013367%)" offset="0.539062"/><stop stop-opacity="1" stop-color="rgb(84.338379%, 84.338379%, 84.338379%)" offset="0.546875"/><stop stop-opacity="1" stop-color="rgb(84.664917%, 84.664917%, 84.664917%)" offset="0.554688"/><stop stop-opacity="1" stop-color="rgb(84.989929%, 84.989929%, 84.989929%)" offset="0.5625"/><stop stop-opacity="1" stop-color="rgb(85.314941%, 85.314941%, 85.314941%)" offset="0.570312"/><stop stop-opacity="1" stop-color="rgb(85.641479%, 85.641479%, 85.641479%)" offset="0.578125"/><stop stop-opacity="1" stop-color="rgb(85.966492%, 85.966492%, 85.966492%)" offset="0.585938"/><stop stop-opacity="1" stop-color="rgb(86.291504%, 86.291504%, 86.291504%)" offset="0.59375"/><stop stop-opacity="1" stop-color="rgb(86.618042%, 86.618042%, 86.618042%)" offset="0.601562"/><stop stop-opacity="1" stop-color="rgb(86.943054%, 86.943054%, 86.943054%)" offset="0.609375"/><stop stop-opacity="1" stop-color="rgb(87.268066%, 87.268066%, 87.268066%)" offset="0.617187"/><stop stop-opacity="1" stop-color="rgb(87.594604%, 87.594604%, 87.594604%)" offset="0.625"/><stop stop-opacity="1" stop-color="rgb(87.919617%, 87.919617%, 87.919617%)" offset="0.632812"/><stop stop-opacity="1" stop-color="rgb(88.244629%, 88.244629%, 88.244629%)" offset="0.640625"/><stop stop-opacity="1" stop-color="rgb(88.569641%, 88.569641%, 88.569641%)" offset="0.648437"/><stop stop-opacity="1" stop-color="rgb(88.896179%, 88.896179%, 88.896179%)" offset="0.65625"/><stop stop-opacity="1" stop-color="rgb(89.221191%, 89.221191%, 89.221191%)" offset="0.664062"/><stop stop-opacity="1" stop-color="rgb(89.546204%, 89.546204%, 89.546204%)" offset="0.671875"/><stop stop-opacity="1" stop-color="rgb(89.872742%, 89.872742%, 89.872742%)" offset="0.679687"/><stop stop-opacity="1" stop-color="rgb(90.197754%, 90.197754%, 90.197754%)" offset="0.6875"/><stop stop-opacity="1" stop-color="rgb(90.522766%, 90.522766%, 90.522766%)" offset="0.695312"/><stop stop-opacity="1" stop-color="rgb(90.849304%, 90.849304%, 90.849304%)" offset="0.703125"/><stop stop-opacity="1" stop-color="rgb(91.174316%, 91.174316%, 91.174316%)" offset="0.710937"/><stop stop-opacity="1" stop-color="rgb(91.499329%, 91.499329%, 91.499329%)" offset="0.71875"/><stop stop-opacity="1" stop-color="rgb(91.825867%, 91.825867%, 91.825867%)" offset="0.726562"/><stop stop-opacity="1" stop-color="rgb(92.150879%, 92.150879%, 92.150879%)" offset="0.734375"/><stop stop-opacity="1" stop-color="rgb(92.475891%, 92.475891%, 92.475891%)" offset="0.742187"/><stop stop-opacity="1" stop-color="rgb(92.802429%, 92.802429%, 92.802429%)" offset="0.75"/><stop stop-opacity="1" stop-color="rgb(93.127441%, 93.127441%, 93.127441%)" offset="0.757812"/><stop stop-opacity="1" stop-color="rgb(93.452454%, 93.452454%, 93.452454%)" offset="0.765625"/><stop stop-opacity="1" stop-color="rgb(93.778992%, 93.778992%, 93.778992%)" offset="0.773437"/><stop stop-opacity="1" stop-color="rgb(94.104004%, 94.104004%, 94.104004%)" offset="0.78125"/><stop stop-opacity="1" stop-color="rgb(94.429016%, 94.429016%, 94.429016%)" offset="0.789062"/><stop stop-opacity="1" stop-color="rgb(94.755554%, 94.755554%, 94.755554%)" offset="0.796875"/><stop stop-opacity="1" stop-color="rgb(95.080566%, 95.080566%, 95.080566%)" offset="0.804688"/><stop stop-opacity="1" stop-color="rgb(95.405579%, 95.405579%, 95.405579%)" offset="0.8125"/><stop stop-opacity="1" stop-color="rgb(95.730591%, 95.730591%, 95.730591%)" offset="0.820312"/><stop stop-opacity="1" stop-color="rgb(96.057129%, 96.057129%, 96.057129%)" offset="0.828125"/><stop stop-opacity="1" stop-color="rgb(96.382141%, 96.382141%, 96.382141%)" offset="0.835938"/><stop stop-opacity="1" stop-color="rgb(96.707153%, 96.707153%, 96.707153%)" offset="0.84375"/><stop stop-opacity="1" stop-color="rgb(97.033691%, 97.033691%, 97.033691%)" offset="0.851563"/><stop stop-opacity="1" stop-color="rgb(97.358704%, 97.358704%, 97.358704%)" offset="0.859375"/><stop stop-opacity="1" stop-color="rgb(97.683716%, 97.683716%, 97.683716%)" offset="0.867187"/><stop stop-opacity="1" stop-color="rgb(98.010254%, 98.010254%, 98.010254%)" offset="0.875"/><stop stop-opacity="1" stop-color="rgb(98.335266%, 98.335266%, 98.335266%)" offset="0.882812"/><stop stop-opacity="1" stop-color="rgb(98.660278%, 98.660278%, 98.660278%)" offset="0.890625"/><stop stop-opacity="1" stop-color="rgb(98.986816%, 98.986816%, 98.986816%)" offset="0.898438"/><stop stop-opacity="1" stop-color="rgb(99.311829%, 99.311829%, 99.311829%)" offset="0.90625"/><stop stop-opacity="1" stop-color="rgb(99.636841%, 99.636841%, 99.636841%)" offset="0.914062"/><stop stop-opacity="1" stop-color="rgb(99.899292%, 99.899292%, 99.899292%)" offset="0.921875"/><stop stop-opacity="1" stop-color="rgb(100%, 100%, 100%)" offset="0.9375"/><stop stop-opacity="1" stop-color="rgb(100%, 100%, 100%)" offset="1"/></linearGradient><clipPath id="cd16f2cd6d"><rect x="0" width="750" y="0" height="128"/></clipPath><clipPath id="0107c36cd4"><path d="M 0.554688 0.699219 L 749.445312 0.699219 L 749.445312 128 L 0.554688 128 Z M 0.554688 0.699219 " clip-rule="nonzero"/></clipPath><clipPath id="7fca484ed6"><rect x="0" width="750" y="0" height="128"/></clipPath><clipPath id="56066165be"><rect x="0" width="750" y="0" height="128"/></clipPath><mask id="a65d1448a4"><g filter="url(#d27c8bf8a3)"><g><g clip-path="url(#56066165be)"><g clip-path="url(#0107c36cd4)"><g><g clip-path="url(#7fca484ed6)"><g fill="#000000" fill-opacity="1"><g transform="translate(131.069975, 74.838097)"><g><path d="M 7.828125 -17.796875 C 7.210938 -17.554688 6.734375 -17.25 6.390625 -16.875 C 6.054688 -16.507812 5.890625 -16.082031 5.890625 -15.59375 C 5.890625 -15.300781 5.96875 -15.117188 6.125 -15.046875 C 6.28125 -14.972656 6.515625 -14.929688 6.828125 -14.921875 C 7.285156 -14.898438 7.609375 -14.769531 7.796875 -14.53125 C 7.984375 -14.300781 8.078125 -14.03125 8.078125 -13.71875 C 8.078125 -13.070312 7.847656 -12.53125 7.390625 -12.09375 C 6.941406 -11.664062 6.367188 -11.453125 5.671875 -11.453125 C 5.035156 -11.453125 4.578125 -11.613281 4.296875 -11.9375 C 4.023438 -12.269531 3.890625 -12.6875 3.890625 -13.1875 C 3.890625 -13.476562 3.90625 -13.691406 3.9375 -13.828125 L 4.09375 -14.84375 C 4.507812 -17.03125 5.820312 -18.363281 8.03125 -18.84375 Z M 13.78125 -17.796875 C 13.15625 -17.566406 12.671875 -17.265625 12.328125 -16.890625 C 11.992188 -16.515625 11.828125 -16.082031 11.828125 -15.59375 C 11.828125 -15.300781 11.90625 -15.117188 12.0625 -15.046875 C 12.21875 -14.972656 12.453125 -14.929688 12.765625 -14.921875 C 13.222656 -14.898438 13.546875 -14.769531 13.734375 -14.53125 C 13.921875 -14.300781 14.015625 -14.03125 14.015625 -13.71875 C 14.015625 -13.070312 13.785156 -12.53125 13.328125 -12.09375 C 12.878906 -11.664062 12.304688 -11.453125 11.609375 -11.453125 C 10.972656 -11.453125 10.515625 -11.613281 10.234375 -11.9375 C 9.960938 -12.269531 9.828125 -12.6875 9.828125 -13.1875 C 9.828125 -13.476562 9.84375 -13.691406 9.875 -13.828125 L 10.03125 -14.84375 C 10.238281 -15.957031 10.679688 -16.84375 11.359375 -17.5 C 12.046875 -18.164062 12.914062 -18.613281 13.96875 -18.84375 Z M 13.78125 -17.796875 "/></g></g></g><g fill="#000000" fill-opacity="1"><g transform="translate(144.502661, 74.838097)"><g><path d="M 15.34375 -13.296875 L 10.984375 -13.296875 L 8.8125 0 L 5.15625 0 L 7.328125 -13.296875 L 3 -13.296875 L 3.515625 -16.5 L 15.828125 -16.5 Z M 15.34375 -13.296875 "/></g></g></g><g fill="#000000" fill-opacity="1"><g transform="translate(157.204775, 74.838097)"><g><path d="M 8.03125 0.234375 C 6.289062 0.234375 4.882812 -0.207031 3.8125 -1.09375 C 2.75 -1.976562 2.21875 -3.390625 2.21875 -5.328125 C 2.21875 -5.941406 2.269531 -6.566406 2.375 -7.203125 L 3.90625 -16.5 L 7.5625 -16.5 L 6.078125 -7.46875 C 6.003906 -6.945312 5.96875 -6.492188 5.96875 -6.109375 C 5.96875 -4.222656 6.84375 -3.28125 8.59375 -3.28125 C 9.757812 -3.28125 10.644531 -3.660156 11.25 -4.421875 C 11.851562 -5.191406 12.257812 -6.207031 12.46875 -7.46875 L 13.953125 -16.5 L 17.59375 -16.5 L 16.0625 -7.203125 C 15.644531 -4.617188 14.703125 -2.734375 13.234375 -1.546875 C 11.773438 -0.359375 10.039062 0.234375 8.03125 0.234375 Z M 8.03125 0.234375 "/></g></g></g><g fill="#000000" fill-opacity="1"><g transform="translate(172.192869, 74.838097)"><g><path d="M 15.359375 -12.015625 C 15.359375 -10.710938 14.992188 -9.550781 14.265625 -8.53125 C 13.546875 -7.507812 12.566406 -6.765625 11.328125 -6.296875 L 13.859375 0 L 10.015625 0 L 7.734375 -5.765625 L 5.8125 -5.765625 L 4.875 0 L 1.21875 0 L 3.890625 -16.5 L 10.15625 -16.5 C 11.882812 -16.5 13.179688 -16.078125 14.046875 -15.234375 C 14.921875 -14.390625 15.359375 -13.316406 15.359375 -12.015625 Z M 6.3125 -8.765625 L 8.3125 -8.765625 C 9.363281 -8.765625 10.195312 -9.007812 10.8125 -9.5 C 11.4375 -10 11.75 -10.664062 11.75 -11.5 C 11.75 -12.144531 11.5 -12.601562 11 -12.875 C 10.5 -13.15625 9.859375 -13.296875 9.078125 -13.296875 L 7.046875 -13.296875 Z M 6.3125 -8.765625 "/></g></g></g><g fill="#000000" fill-opacity="1"><g transform="translate(185.50773, 74.838097)"><g><path d="M 3.890625 -16.5 L 8.15625 -16.5 L 12.421875 -5.625 L 12.484375 -5.625 L 14.25 -16.5 L 17.90625 -16.5 L 15.21875 0.03125 L 10.90625 0.03125 L 6.640625 -10.4375 L 6.546875 -10.4375 L 4.859375 0.03125 L 1.21875 0.03125 Z M 3.890625 -16.5 "/></g></g></g><g fill="#000000" fill-opacity="1"><g transform="translate(200.872897, 74.838097)"><g><path d="M 4.078125 -16.5 L 7.78125 -16.5 L 5.09375 0 L 1.390625 0 Z M 4.078125 -16.5 "/></g></g></g><g fill="#000000" fill-opacity="1"><g transform="translate(206.292903, 74.838097)"><g><path d="M 3.890625 -16.5 L 8.15625 -16.5 L 12.421875 -5.625 L 12.484375 -5.625 L 14.25 -16.5 L 17.90625 -16.5 L 15.21875 0.03125 L 10.90625 0.03125 L 6.640625 -10.4375 L 6.546875 -10.4375 L 4.859375 0.03125 L 1.21875 0.03125 Z M 3.890625 -16.5 "/></g></g></g><g fill="#000000" fill-opacity="1"><g transform="translate(221.44596, 74.838097)"><g><path d="M 8.0625 0.21875 C 6.738281 0.21875 5.632812 -0.078125 4.75 -0.671875 C 3.863281 -1.273438 3.207031 -2.078125 2.78125 -3.078125 C 2.351562 -4.078125 2.140625 -5.1875 2.140625 -6.40625 C 2.140625 -8.3125 2.546875 -10.0625 3.359375 -11.65625 C 4.171875 -13.25 5.269531 -14.507812 6.65625 -15.4375 C 8.039062 -16.363281 9.5625 -16.828125 11.21875 -16.828125 C 13.082031 -16.828125 14.53125 -16.300781 15.5625 -15.25 C 16.59375 -14.207031 17.21875 -12.847656 17.4375 -11.171875 L 13.578125 -11.171875 C 13.484375 -11.910156 13.195312 -12.5 12.71875 -12.9375 C 12.25 -13.375 11.582031 -13.59375 10.71875 -13.59375 C 9.8125 -13.59375 8.988281 -13.28125 8.25 -12.65625 C 7.507812 -12.039062 6.925781 -11.191406 6.5 -10.109375 C 6.070312 -9.035156 5.859375 -7.84375 5.859375 -6.53125 C 5.859375 -5.300781 6.140625 -4.351562 6.703125 -3.6875 C 7.265625 -3.03125 8.070312 -2.703125 9.125 -2.703125 C 9.875 -2.703125 10.53125 -2.867188 11.09375 -3.203125 C 11.664062 -3.535156 12.113281 -3.957031 12.4375 -4.46875 C 12.769531 -4.988281 12.957031 -5.535156 13 -6.109375 L 13.046875 -6.40625 L 10.03125 -6.40625 L 10.46875 -9.03125 L 17.15625 -9.03125 L 15.6875 0 L 12.984375 0 L 13.359375 -2.328125 L 13.171875 -2.328125 C 11.929688 -0.628906 10.226562 0.21875 8.0625 0.21875 Z M 8.0625 0.21875 "/></g></g></g><g fill="#000000" fill-opacity="1"><g transform="translate(237.046778, 74.838097)"><g/></g></g><g fill="#000000" fill-opacity="1"><g transform="translate(241.170601, 74.838097)"><g><path d="M 10.15625 -16.5 C 11.863281 -16.5 13.148438 -16.050781 14.015625 -15.15625 C 14.878906 -14.269531 15.3125 -13.15625 15.3125 -11.8125 C 15.3125 -10.550781 15.015625 -9.410156 14.421875 -8.390625 C 13.835938 -7.367188 13.015625 -6.5625 11.953125 -5.96875 C 10.898438 -5.382812 9.6875 -5.09375 8.3125 -5.09375 L 5.65625 -5.09375 L 4.828125 0 L 1.21875 0 L 3.890625 -16.5 Z M 8.21875 -8.109375 C 9.289062 -8.109375 10.140625 -8.394531 10.765625 -8.96875 C 11.390625 -9.539062 11.703125 -10.3125 11.703125 -11.28125 C 11.703125 -12.007812 11.453125 -12.519531 10.953125 -12.8125 C 10.460938 -13.113281 9.835938 -13.265625 9.078125 -13.265625 L 7 -13.265625 L 6.15625 -8.109375 Z M 8.21875 -8.109375 "/></g></g></g><g fill="#000000" fill-opacity="1"><g transform="translate(253.966989, 74.838097)"><g><path d="M 15.359375 -12.015625 C 15.359375 -10.710938 14.992188 -9.550781 14.265625 -8.53125 C 13.546875 -7.507812 12.566406 -6.765625 11.328125 -6.296875 L 13.859375 0 L 10.015625 0 L 7.734375 -5.765625 L 5.8125 -5.765625 L 4.875 0 L 1.21875 0 L 3.890625 -16.5 L 10.15625 -16.5 C 11.882812 -16.5 13.179688 -16.078125 14.046875 -15.234375 C 14.921875 -14.390625 15.359375 -13.316406 15.359375 -12.015625 Z M 6.3125 -8.765625 L 8.3125 -8.765625 C 9.363281 -8.765625 10.195312 -9.007812 10.8125 -9.5 C 11.4375 -10 11.75 -10.664062 11.75 -11.5 C 11.75 -12.144531 11.5 -12.601562 11 -12.875 C 10.5 -13.15625 9.859375 -13.296875 9.078125 -13.296875 L 7.046875 -13.296875 Z M 6.3125 -8.765625 "/></g></g></g><g fill="#000000" fill-opacity="1"><g transform="translate(266.999039, 74.838097)"><g><path d="M 8.453125 0.21875 C 7.046875 0.21875 5.859375 -0.0664062 4.890625 -0.640625 C 3.921875 -1.222656 3.203125 -2.007812 2.734375 -3 C 2.273438 -4 2.046875 -5.128906 2.046875 -6.390625 C 2.046875 -8.304688 2.453125 -10.0625 3.265625 -11.65625 C 4.078125 -13.25 5.179688 -14.507812 6.578125 -15.4375 C 7.984375 -16.363281 9.53125 -16.828125 11.21875 -16.828125 C 12.613281 -16.828125 13.78125 -16.535156 14.71875 -15.953125 C 15.664062 -15.367188 16.375 -14.570312 16.84375 -13.5625 C 17.3125 -12.550781 17.546875 -11.398438 17.546875 -10.109375 C 17.546875 -8.191406 17.144531 -6.441406 16.34375 -4.859375 C 15.550781 -3.285156 14.457031 -2.046875 13.0625 -1.140625 C 11.675781 -0.234375 10.140625 0.21875 8.453125 0.21875 Z M 8.953125 -3.0625 C 9.796875 -3.0625 10.570312 -3.359375 11.28125 -3.953125 C 11.988281 -4.554688 12.550781 -5.367188 12.96875 -6.390625 C 13.382812 -7.421875 13.59375 -8.539062 13.59375 -9.75 C 13.59375 -10.882812 13.347656 -11.800781 12.859375 -12.5 C 12.378906 -13.195312 11.648438 -13.546875 10.671875 -13.546875 C 9.835938 -13.546875 9.0625 -13.238281 8.34375 -12.625 C 7.632812 -12.007812 7.066406 -11.1875 6.640625 -10.15625 C 6.222656 -9.132812 6.015625 -8.019531 6.015625 -6.8125 C 6.015625 -5.707031 6.257812 -4.804688 6.75 -4.109375 C 7.25 -3.410156 7.984375 -3.0625 8.953125 -3.0625 Z M 8.953125 -3.0625 "/></g></g></g><g fill="#000000" fill-opacity="1"><g transform="translate(282.717694, 74.838097)"><g><path d="M 3.890625 -16.515625 L 10.421875 -16.515625 C 12.335938 -16.515625 13.851562 -15.957031 14.96875 -14.84375 C 16.082031 -13.726562 16.640625 -12.171875 16.640625 -10.171875 C 16.640625 -8.253906 16.25 -6.519531 15.46875 -4.96875 C 14.6875 -3.425781 13.613281 -2.21875 12.25 -1.34375 C 10.894531 -0.46875 9.375 -0.03125 7.6875 -0.03125 L 1.21875 -0.03125 Z M 7.546875 -3.328125 C 9.109375 -3.328125 10.351562 -3.890625 11.28125 -5.015625 C 12.207031 -6.148438 12.671875 -7.753906 12.671875 -9.828125 C 12.671875 -11.097656 12.347656 -11.988281 11.703125 -12.5 C 11.066406 -13.007812 10.222656 -13.265625 9.171875 -13.265625 L 6.921875 -13.265625 L 5.296875 -3.328125 Z M 7.546875 -3.328125 "/></g></g></g><g fill="#000000" fill-opacity="1"><g transform="translate(297.375852, 74.838097)"><g><path d="M 8.03125 0.234375 C 6.289062 0.234375 4.882812 -0.207031 3.8125 -1.09375 C 2.75 -1.976562 2.21875 -3.390625 2.21875 -5.328125 C 2.21875 -5.941406 2.269531 -6.566406 2.375 -7.203125 L 3.90625 -16.5 L 7.5625 -16.5 L 6.078125 -7.46875 C 6.003906 -6.945312 5.96875 -6.492188 5.96875 -6.109375 C 5.96875 -4.222656 6.84375 -3.28125 8.59375 -3.28125 C 9.757812 -3.28125 10.644531 -3.660156 11.25 -4.421875 C 11.851562 -5.191406 12.257812 -6.207031 12.46875 -7.46875 L 13.953125 -16.5 L 17.59375 -16.5 L 16.0625 -7.203125 C 15.644531 -4.617188 14.703125 -2.734375 13.234375 -1.546875 C 11.773438 -0.359375 10.039062 0.234375 8.03125 0.234375 Z M 8.03125 0.234375 "/></g></g></g><g fill="#000000" fill-opacity="1"><g transform="translate(312.222535, 74.838097)"><g><path d="M 8.40625 0.21875 C 7.03125 0.21875 5.867188 -0.078125 4.921875 -0.671875 C 3.984375 -1.273438 3.273438 -2.085938 2.796875 -3.109375 C 2.328125 -4.128906 2.09375 -5.273438 2.09375 -6.546875 C 2.09375 -8.398438 2.5 -10.113281 3.3125 -11.6875 C 4.132812 -13.269531 5.238281 -14.519531 6.625 -15.4375 C 8.019531 -16.363281 9.535156 -16.828125 11.171875 -16.828125 C 12.472656 -16.828125 13.578125 -16.5625 14.484375 -16.03125 C 15.398438 -15.507812 16.085938 -14.785156 16.546875 -13.859375 C 17.015625 -12.941406 17.269531 -11.90625 17.3125 -10.75 L 13.765625 -10.75 C 13.734375 -11.5625 13.441406 -12.242188 12.890625 -12.796875 C 12.335938 -13.347656 11.613281 -13.625 10.71875 -13.625 C 9.8125 -13.625 8.988281 -13.320312 8.25 -12.71875 C 7.519531 -12.125 6.945312 -11.300781 6.53125 -10.25 C 6.125 -9.195312 5.921875 -8.019531 5.921875 -6.71875 C 5.921875 -5.570312 6.171875 -4.664062 6.671875 -4 C 7.171875 -3.332031 7.941406 -3 8.984375 -3 C 9.878906 -3 10.664062 -3.257812 11.34375 -3.78125 C 12.03125 -4.3125 12.546875 -4.953125 12.890625 -5.703125 L 16.421875 -5.703125 C 15.773438 -3.972656 14.753906 -2.550781 13.359375 -1.4375 C 11.960938 -0.332031 10.3125 0.21875 8.40625 0.21875 Z M 8.40625 0.21875 "/></g></g></g><g fill="#000000" fill-opacity="1"><g transform="translate(326.31506, 74.838097)"><g><path d="M 15.34375 -13.296875 L 10.984375 -13.296875 L 8.8125 0 L 5.15625 0 L 7.328125 -13.296875 L 3 -13.296875 L 3.515625 -16.5 L 15.828125 -16.5 Z M 15.34375 -13.296875 "/></g></g></g><g fill="#000000" fill-opacity="1"><g transform="translate(338.970025, 74.838097)"><g><path d="M 4.078125 -16.5 L 7.78125 -16.5 L 5.09375 0 L 1.390625 0 Z M 4.078125 -16.5 "/></g></g></g><g fill="#000000" fill-opacity="1"><g transform="translate(344.177908, 74.838097)"><g><path d="M 8.453125 0.21875 C 7.046875 0.21875 5.859375 -0.0664062 4.890625 -0.640625 C 3.921875 -1.222656 3.203125 -2.007812 2.734375 -3 C 2.273438 -4 2.046875 -5.128906 2.046875 -6.390625 C 2.046875 -8.304688 2.453125 -10.0625 3.265625 -11.65625 C 4.078125 -13.25 5.179688 -14.507812 6.578125 -15.4375 C 7.984375 -16.363281 9.53125 -16.828125 11.21875 -16.828125 C 12.613281 -16.828125 13.78125 -16.535156 14.71875 -15.953125 C 15.664062 -15.367188 16.375 -14.570312 16.84375 -13.5625 C 17.3125 -12.550781 17.546875 -11.398438 17.546875 -10.109375 C 17.546875 -8.191406 17.144531 -6.441406 16.34375 -4.859375 C 15.550781 -3.285156 14.457031 -2.046875 13.0625 -1.140625 C 11.675781 -0.234375 10.140625 0.21875 8.453125 0.21875 Z M 8.953125 -3.0625 C 9.796875 -3.0625 10.570312 -3.359375 11.28125 -3.953125 C 11.988281 -4.554688 12.550781 -5.367188 12.96875 -6.390625 C 13.382812 -7.421875 13.59375 -8.539062 13.59375 -9.75 C 13.59375 -10.882812 13.347656 -11.800781 12.859375 -12.5 C 12.378906 -13.195312 11.648438 -13.546875 10.671875 -13.546875 C 9.835938 -13.546875 9.0625 -13.238281 8.34375 -12.625 C 7.632812 -12.007812 7.066406 -11.1875 6.640625 -10.15625 C 6.222656 -9.132812 6.015625 -8.019531 6.015625 -6.8125 C 6.015625 -5.707031 6.257812 -4.804688 6.75 -4.109375 C 7.25 -3.410156 7.984375 -3.0625 8.953125 -3.0625 Z M 8.953125 -3.0625 "/></g></g></g><g fill="#000000" fill-opacity="1"><g transform="translate(359.896564, 74.838097)"><g><path d="M 3.890625 -16.5 L 8.15625 -16.5 L 12.421875 -5.625 L 12.484375 -5.625 L 14.25 -16.5 L 17.90625 -16.5 L 15.21875 0.03125 L 10.90625 0.03125 L 6.640625 -10.4375 L 6.546875 -10.4375 L 4.859375 0.03125 L 1.21875 0.03125 Z M 3.890625 -16.5 "/></g></g></g><g fill="#000000" fill-opacity="1"><g transform="translate(375.049621, 74.838097)"><g/></g></g><g fill="#000000" fill-opacity="1"><g transform="translate(379.173455, 74.838097)"><g><path d="M 4.078125 -16.5 L 7.78125 -16.5 L 5.09375 0 L 1.390625 0 Z M 4.078125 -16.5 "/></g></g></g><g fill="#000000" fill-opacity="1"><g transform="translate(384.593449, 74.838097)"><g><path d="M 3.890625 -16.5 L 8.15625 -16.5 L 12.421875 -5.625 L 12.484375 -5.625 L 14.25 -16.5 L 17.90625 -16.5 L 15.21875 0.03125 L 10.90625 0.03125 L 6.640625 -10.4375 L 6.546875 -10.4375 L 4.859375 0.03125 L 1.21875 0.03125 Z M 3.890625 -16.5 "/></g></g></g><g fill="#000000" fill-opacity="1"><g transform="translate(399.746506, 74.838097)"><g><path d="M 15.34375 -13.296875 L 10.984375 -13.296875 L 8.8125 0 L 5.15625 0 L 7.328125 -13.296875 L 3 -13.296875 L 3.515625 -16.5 L 15.828125 -16.5 Z M 15.34375 -13.296875 "/></g></g></g><g fill="#000000" fill-opacity="1"><g transform="translate(411.930146, 74.838097)"><g><path d="M 8.453125 0.21875 C 7.046875 0.21875 5.859375 -0.0664062 4.890625 -0.640625 C 3.921875 -1.222656 3.203125 -2.007812 2.734375 -3 C 2.273438 -4 2.046875 -5.128906 2.046875 -6.390625 C 2.046875 -8.304688 2.453125 -10.0625 3.265625 -11.65625 C 4.078125 -13.25 5.179688 -14.507812 6.578125 -15.4375 C 7.984375 -16.363281 9.53125 -16.828125 11.21875 -16.828125 C 12.613281 -16.828125 13.78125 -16.535156 14.71875 -15.953125 C 15.664062 -15.367188 16.375 -14.570312 16.84375 -13.5625 C 17.3125 -12.550781 17.546875 -11.398438 17.546875 -10.109375 C 17.546875 -8.191406 17.144531 -6.441406 16.34375 -4.859375 C 15.550781 -3.285156 14.457031 -2.046875 13.0625 -1.140625 C 11.675781 -0.234375 10.140625 0.21875 8.453125 0.21875 Z M 8.953125 -3.0625 C 9.796875 -3.0625 10.570312 -3.359375 11.28125 -3.953125 C 11.988281 -4.554688 12.550781 -5.367188 12.96875 -6.390625 C 13.382812 -7.421875 13.59375 -8.539062 13.59375 -9.75 C 13.59375 -10.882812 13.347656 -11.800781 12.859375 -12.5 C 12.378906 -13.195312 11.648438 -13.546875 10.671875 -13.546875 C 9.835938 -13.546875 9.0625 -13.238281 8.34375 -12.625 C 7.632812 -12.007812 7.066406 -11.1875 6.640625 -10.15625 C 6.222656 -9.132812 6.015625 -8.019531 6.015625 -6.8125 C 6.015625 -5.707031 6.257812 -4.804688 6.75 -4.109375 C 7.25 -3.410156 7.984375 -3.0625 8.953125 -3.0625 Z M 8.953125 -3.0625 "/></g></g></g><g fill="#000000" fill-opacity="1"><g transform="translate(427.648802, 74.838097)"><g/></g></g><g fill="#000000" fill-opacity="1"><g transform="translate(431.772636, 74.838097)"><g><path d="M 8.40625 0.21875 C 7.03125 0.21875 5.867188 -0.078125 4.921875 -0.671875 C 3.984375 -1.273438 3.273438 -2.085938 2.796875 -3.109375 C 2.328125 -4.128906 2.09375 -5.273438 2.09375 -6.546875 C 2.09375 -8.398438 2.5 -10.113281 3.3125 -11.6875 C 4.132812 -13.269531 5.238281 -14.519531 6.625 -15.4375 C 8.019531 -16.363281 9.535156 -16.828125 11.171875 -16.828125 C 12.472656 -16.828125 13.578125 -16.5625 14.484375 -16.03125 C 15.398438 -15.507812 16.085938 -14.785156 16.546875 -13.859375 C 17.015625 -12.941406 17.269531 -11.90625 17.3125 -10.75 L 13.765625 -10.75 C 13.734375 -11.5625 13.441406 -12.242188 12.890625 -12.796875 C 12.335938 -13.347656 11.613281 -13.625 10.71875 -13.625 C 9.8125 -13.625 8.988281 -13.320312 8.25 -12.71875 C 7.519531 -12.125 6.945312 -11.300781 6.53125 -10.25 C 6.125 -9.195312 5.921875 -8.019531 5.921875 -6.71875 C 5.921875 -5.570312 6.171875 -4.664062 6.671875 -4 C 7.171875 -3.332031 7.941406 -3 8.984375 -3 C 9.878906 -3 10.664062 -3.257812 11.34375 -3.78125 C 12.03125 -4.3125 12.546875 -4.953125 12.890625 -5.703125 L 16.421875 -5.703125 C 15.773438 -3.972656 14.753906 -2.550781 13.359375 -1.4375 C 11.960938 -0.332031 10.3125 0.21875 8.40625 0.21875 Z M 8.40625 0.21875 "/></g></g></g><g fill="#000000" fill-opacity="1"><g transform="translate(446.878545, 74.838097)"><g><path d="M 8.453125 0.21875 C 7.046875 0.21875 5.859375 -0.0664062 4.890625 -0.640625 C 3.921875 -1.222656 3.203125 -2.007812 2.734375 -3 C 2.273438 -4 2.046875 -5.128906 2.046875 -6.390625 C 2.046875 -8.304688 2.453125 -10.0625 3.265625 -11.65625 C 4.078125 -13.25 5.179688 -14.507812 6.578125 -15.4375 C 7.984375 -16.363281 9.53125 -16.828125 11.21875 -16.828125 C 12.613281 -16.828125 13.78125 -16.535156 14.71875 -15.953125 C 15.664062 -15.367188 16.375 -14.570312 16.84375 -13.5625 C 17.3125 -12.550781 17.546875 -11.398438 17.546875 -10.109375 C 17.546875 -8.191406 17.144531 -6.441406 16.34375 -4.859375 C 15.550781 -3.285156 14.457031 -2.046875 13.0625 -1.140625 C 11.675781 -0.234375 10.140625 0.21875 8.453125 0.21875 Z M 8.953125 -3.0625 C 9.796875 -3.0625 10.570312 -3.359375 11.28125 -3.953125 C 11.988281 -4.554688 12.550781 -5.367188 12.96875 -6.390625 C 13.382812 -7.421875 13.59375 -8.539062 13.59375 -9.75 C 13.59375 -10.882812 13.347656 -11.800781 12.859375 -12.5 C 12.378906 -13.195312 11.648438 -13.546875 10.671875 -13.546875 C 9.835938 -13.546875 9.0625 -13.238281 8.34375 -12.625 C 7.632812 -12.007812 7.066406 -11.1875 6.640625 -10.15625 C 6.222656 -9.132812 6.015625 -8.019531 6.015625 -6.8125 C 6.015625 -5.707031 6.257812 -4.804688 6.75 -4.109375 C 7.25 -3.410156 7.984375 -3.0625 8.953125 -3.0625 Z M 8.953125 -3.0625 "/></g></g></g><g fill="#000000" fill-opacity="1"><g transform="translate(462.5972, 74.838097)"><g><path d="M 3.890625 -16.5 L 9.375 -16.5 L 11.078125 -7.140625 L 11.125 -7.140625 L 15.90625 -16.5 L 21.375 -16.5 L 18.6875 0 L 15.078125 0 L 16.9375 -11.3125 L 16.828125 -11.3125 L 11.125 0 L 8.78125 0 L 6.78125 -11.3125 L 6.671875 -11.3125 L 4.828125 0 L 1.21875 0 Z M 3.890625 -16.5 "/></g></g></g><g fill="#000000" fill-opacity="1"><g transform="translate(481.426672, 74.838097)"><g><path d="M 10.15625 -16.5 C 11.863281 -16.5 13.148438 -16.050781 14.015625 -15.15625 C 14.878906 -14.269531 15.3125 -13.15625 15.3125 -11.8125 C 15.3125 -10.550781 15.015625 -9.410156 14.421875 -8.390625 C 13.835938 -7.367188 13.015625 -6.5625 11.953125 -5.96875 C 10.898438 -5.382812 9.6875 -5.09375 8.3125 -5.09375 L 5.65625 -5.09375 L 4.828125 0 L 1.21875 0 L 3.890625 -16.5 Z M 8.21875 -8.109375 C 9.289062 -8.109375 10.140625 -8.394531 10.765625 -8.96875 C 11.390625 -9.539062 11.703125 -10.3125 11.703125 -11.28125 C 11.703125 -12.007812 11.453125 -12.519531 10.953125 -12.8125 C 10.460938 -13.113281 9.835938 -13.265625 9.078125 -13.265625 L 7 -13.265625 L 6.15625 -8.109375 Z M 8.21875 -8.109375 "/></g></g></g><g fill="#000000" fill-opacity="1"><g transform="translate(494.22306, 74.838097)"><g><path d="M 7.09375 -13.296875 L 6.53125 -9.78125 L 12.765625 -9.78125 L 12.296875 -6.921875 L 6.0625 -6.921875 L 5.4375 -3.203125 L 12.890625 -3.203125 L 12.375 0 L 1.21875 0 L 3.90625 -16.5 L 15.0625 -16.5 L 14.5625 -13.296875 Z M 7.09375 -13.296875 "/></g></g></g><g fill="#000000" fill-opacity="1"><g transform="translate(506.2653, 74.838097)"><g><path d="M 3.890625 -16.5 L 8.15625 -16.5 L 12.421875 -5.625 L 12.484375 -5.625 L 14.25 -16.5 L 17.90625 -16.5 L 15.21875 0.03125 L 10.90625 0.03125 L 6.640625 -10.4375 L 6.546875 -10.4375 L 4.859375 0.03125 L 1.21875 0.03125 Z M 3.890625 -16.5 "/></g></g></g><g fill="#000000" fill-opacity="1"><g transform="translate(521.889704, 74.838097)"><g><path d="M 7.28125 0.21875 C 6.039062 0.21875 5.003906 -0.0078125 4.171875 -0.46875 C 3.335938 -0.925781 2.71875 -1.523438 2.3125 -2.265625 C 1.914062 -3.015625 1.71875 -3.832031 1.71875 -4.71875 C 1.71875 -4.945312 1.726562 -5.117188 1.75 -5.234375 L 1.765625 -5.421875 L 5.75 -5.421875 L 5.75 -5.25 C 5.75 -4.632812 5.910156 -4.101562 6.234375 -3.65625 C 6.554688 -3.21875 7.101562 -3 7.875 -3 C 8.59375 -3 9.195312 -3.203125 9.6875 -3.609375 C 10.1875 -4.023438 10.4375 -4.539062 10.4375 -5.15625 C 10.4375 -5.582031 10.28125 -5.925781 9.96875 -6.1875 C 9.664062 -6.445312 9.296875 -6.625 8.859375 -6.71875 L 7.046875 -7.09375 C 6.117188 -7.300781 5.25 -7.691406 4.4375 -8.265625 C 3.632812 -8.847656 3.234375 -9.773438 3.234375 -11.046875 C 3.234375 -12.148438 3.519531 -13.140625 4.09375 -14.015625 C 4.664062 -14.898438 5.457031 -15.585938 6.46875 -16.078125 C 7.476562 -16.578125 8.617188 -16.828125 9.890625 -16.828125 C 11.148438 -16.828125 12.1875 -16.585938 13 -16.109375 C 13.820312 -15.628906 14.421875 -15.003906 14.796875 -14.234375 C 15.171875 -13.460938 15.359375 -12.632812 15.359375 -11.75 L 15.359375 -11.640625 L 11.1875 -11.640625 L 11.1875 -11.703125 C 11.1875 -12.242188 11.050781 -12.722656 10.78125 -13.140625 C 10.519531 -13.554688 10.015625 -13.765625 9.265625 -13.765625 C 8.617188 -13.765625 8.070312 -13.5625 7.625 -13.15625 C 7.1875 -12.757812 6.96875 -12.257812 6.96875 -11.65625 C 6.96875 -10.894531 7.550781 -10.382812 8.71875 -10.125 L 10.5625 -9.703125 C 11.625 -9.453125 12.519531 -9.015625 13.25 -8.390625 C 13.976562 -7.773438 14.34375 -6.910156 14.34375 -5.796875 C 14.34375 -4.679688 14.03125 -3.660156 13.40625 -2.734375 C 12.789062 -1.816406 11.941406 -1.09375 10.859375 -0.5625 C 9.773438 -0.0390625 8.582031 0.21875 7.28125 0.21875 Z M 7.28125 0.21875 "/></g></g></g><g fill="#000000" fill-opacity="1"><g transform="translate(534.473981, 74.838097)"><g><path d="M 11.21875 -3.8125 L 5.96875 -3.8125 L 4.140625 0 L 0.421875 0 L 8.984375 -16.5 L 12.390625 -16.5 L 15.53125 0 L 11.8125 0 Z M 10.796875 -6.625 L 9.984375 -11.953125 L 9.828125 -11.953125 L 7.296875 -6.625 Z M 10.796875 -6.625 "/></g></g></g><g fill="#000000" fill-opacity="1"><g transform="translate(547.293839, 74.838097)"><g><path d="M 15.34375 -13.296875 L 10.984375 -13.296875 L 8.8125 0 L 5.15625 0 L 7.328125 -13.296875 L 3 -13.296875 L 3.515625 -16.5 L 15.828125 -16.5 Z M 15.34375 -13.296875 "/></g></g></g><g fill="#000000" fill-opacity="1"><g transform="translate(559.948827, 74.838097)"><g><path d="M 4.078125 -16.5 L 7.78125 -16.5 L 5.09375 0 L 1.390625 0 Z M 4.078125 -16.5 "/></g></g></g><g fill="#000000" fill-opacity="1"><g transform="translate(565.156733, 74.838097)"><g><path d="M 8.453125 0.21875 C 7.046875 0.21875 5.859375 -0.0664062 4.890625 -0.640625 C 3.921875 -1.222656 3.203125 -2.007812 2.734375 -3 C 2.273438 -4 2.046875 -5.128906 2.046875 -6.390625 C 2.046875 -8.304688 2.453125 -10.0625 3.265625 -11.65625 C 4.078125 -13.25 5.179688 -14.507812 6.578125 -15.4375 C 7.984375 -16.363281 9.53125 -16.828125 11.21875 -16.828125 C 12.613281 -16.828125 13.78125 -16.535156 14.71875 -15.953125 C 15.664062 -15.367188 16.375 -14.570312 16.84375 -13.5625 C 17.3125 -12.550781 17.546875 -11.398438 17.546875 -10.109375 C 17.546875 -8.191406 17.144531 -6.441406 16.34375 -4.859375 C 15.550781 -3.285156 14.457031 -2.046875 13.0625 -1.140625 C 11.675781 -0.234375 10.140625 0.21875 8.453125 0.21875 Z M 8.953125 -3.0625 C 9.796875 -3.0625 10.570312 -3.359375 11.28125 -3.953125 C 11.988281 -4.554688 12.550781 -5.367188 12.96875 -6.390625 C 13.382812 -7.421875 13.59375 -8.539062 13.59375 -9.75 C 13.59375 -10.882812 13.347656 -11.800781 12.859375 -12.5 C 12.378906 -13.195312 11.648438 -13.546875 10.671875 -13.546875 C 9.835938 -13.546875 9.0625 -13.238281 8.34375 -12.625 C 7.632812 -12.007812 7.066406 -11.1875 6.640625 -10.15625 C 6.222656 -9.132812 6.015625 -8.019531 6.015625 -6.8125 C 6.015625 -5.707031 6.257812 -4.804688 6.75 -4.109375 C 7.25 -3.410156 7.984375 -3.0625 8.953125 -3.0625 Z M 8.953125 -3.0625 "/></g></g></g><g fill="#000000" fill-opacity="1"><g transform="translate(580.875389, 74.838097)"><g><path d="M 3.890625 -16.5 L 8.15625 -16.5 L 12.421875 -5.625 L 12.484375 -5.625 L 14.25 -16.5 L 17.90625 -16.5 L 15.21875 0.03125 L 10.90625 0.03125 L 6.640625 -10.4375 L 6.546875 -10.4375 L 4.859375 0.03125 L 1.21875 0.03125 Z M 3.890625 -16.5 "/></g></g></g><g fill="#000000" fill-opacity="1"><g transform="translate(596.028446, 74.838097)"><g><path d="M 3.90625 0.21875 C 3.40625 0.21875 3 0.0625 2.6875 -0.25 C 2.382812 -0.570312 2.234375 -0.96875 2.234375 -1.4375 C 2.234375 -2.082031 2.472656 -2.640625 2.953125 -3.109375 C 3.429688 -3.578125 3.988281 -3.8125 4.625 -3.8125 C 5.125 -3.8125 5.53125 -3.65625 5.84375 -3.34375 C 6.15625 -3.03125 6.3125 -2.640625 6.3125 -2.171875 C 6.3125 -1.535156 6.066406 -0.976562 5.578125 -0.5 C 5.097656 -0.0195312 4.539062 0.21875 3.90625 0.21875 Z M 3.90625 0.21875 "/></g></g></g><g fill="#000000" fill-opacity="1"><g transform="translate(602.650349, 74.838097)"><g><path d="M 4.234375 -12.53125 C 5.523438 -13 6.171875 -13.726562 6.171875 -14.71875 C 6.171875 -15.019531 6.09375 -15.207031 5.9375 -15.28125 C 5.789062 -15.351562 5.5625 -15.394531 5.25 -15.40625 C 4.800781 -15.425781 4.476562 -15.546875 4.28125 -15.765625 C 4.09375 -15.992188 4 -16.269531 4 -16.59375 C 4 -17.226562 4.226562 -17.765625 4.6875 -18.203125 C 5.144531 -18.648438 5.71875 -18.875 6.40625 -18.875 C 7.050781 -18.875 7.507812 -18.707031 7.78125 -18.375 C 8.0625 -18.050781 8.203125 -17.628906 8.203125 -17.109375 C 8.203125 -16.828125 8.1875 -16.613281 8.15625 -16.46875 L 7.96875 -15.453125 C 7.570312 -13.304688 6.265625 -11.972656 4.046875 -11.453125 Z M 10.171875 -12.53125 C 11.460938 -13 12.109375 -13.726562 12.109375 -14.71875 C 12.109375 -15.019531 12.03125 -15.207031 11.875 -15.28125 C 11.726562 -15.351562 11.5 -15.394531 11.1875 -15.40625 C 10.738281 -15.425781 10.414062 -15.546875 10.21875 -15.765625 C 10.03125 -15.992188 9.9375 -16.269531 9.9375 -16.59375 C 9.9375 -17.226562 10.164062 -17.765625 10.625 -18.203125 C 11.082031 -18.648438 11.65625 -18.875 12.34375 -18.875 C 12.988281 -18.875 13.445312 -18.707031 13.71875 -18.375 C 14 -18.050781 14.140625 -17.628906 14.140625 -17.109375 C 14.140625 -16.828125 14.125 -16.613281 14.09375 -16.46875 L 13.90625 -15.453125 C 13.507812 -13.304688 12.203125 -11.972656 9.984375 -11.453125 Z M 10.171875 -12.53125 "/></g></g></g></g></g></g></g></g></g></mask><clipPath id="ba7be98342"><path d="M 84.070312 0.699219 L 665.199219 0.699219 L 665.199219 128 L 84.070312 128 Z M 84.070312 0.699219 " clip-rule="nonzero"/></clipPath><clipPath id="3015764640"><rect x="0" width="750" y="0" height="128"/></clipPath><clipPath id="3c8022915d"><rect x="0" width="750" y="0" height="128"/></clipPath></defs><g clip-path="url(#1adcdd13cf)"><path fill="#ffffff" d="M 0.554688 0 L 749.445312 0 L 749.445312 337 L 0.554688 337 Z M 0.554688 0 " fill-opacity="1" fill-rule="nonzero"/><path fill="#ffffff" d="M 0.554688 0 L 749.445312 0 L 749.445312 337 L 0.554688 337 Z M 0.554688 0 " fill-opacity="1" fill-rule="nonzero"/><g><g clip-path="url(#9adacbea2c)"><g transform="matrix(1, 0, 0, 1, 300, 0)"><g clip-path="url(#6d0b9b9634)"><g fill="#ffffff" fill-opacity="1"><g transform="translate(1.537807, 200.654584)"><g><path d="M 64.109375 15.171875 C 62.378906 19.960938 60.414062 24.351562 58.21875 28.34375 C 56.019531 32.34375 52.054688 36.273438 46.328125 40.140625 C 40.609375 44.003906 33.085938 45.9375 23.765625 45.9375 C 19.898438 45.9375 16.535156 45.601562 13.671875 44.9375 C 10.816406 44.269531 8.988281 43.867188 8.1875 43.734375 L 8.1875 22.171875 C 11.382812 22.703125 14.179688 22.96875 16.578125 22.96875 C 22.835938 22.96875 27.429688 21.566406 30.359375 18.765625 C 33.285156 15.972656 35.878906 11.648438 38.140625 5.796875 L 41.140625 -1.59375 L 3.59375 -105.640625 L 34.953125 -105.640625 L 55.71875 -35.75 L 56.921875 -35.75 L 78.28125 -105.640625 L 109.640625 -105.640625 Z M 64.109375 15.171875 "/></g></g></g><g fill="#ffffff" fill-opacity="1"><g transform="translate(94.796681, 200.654584)"><g><path d="M 53.328125 -81.484375 L 53.328125 -39.140625 C 53.328125 -34.484375 53.554688 -31.054688 54.015625 -28.859375 C 54.484375 -26.660156 55.816406 -24.894531 58.015625 -23.5625 C 60.210938 -22.226562 63.773438 -21.5625 68.703125 -21.5625 C 71.234375 -21.5625 73.828125 -21.828125 76.484375 -22.359375 L 76.484375 -0.796875 C 75.148438 -0.535156 72.484375 -0.238281 68.484375 0.09375 C 64.492188 0.425781 60.503906 0.59375 56.515625 0.59375 C 46.128906 0.59375 38.441406 -0.9375 33.453125 -4 C 28.460938 -7.0625 25.363281 -10.785156 24.15625 -15.171875 C 22.957031 -19.566406 22.359375 -25.296875 22.359375 -32.359375 L 22.359375 -81.484375 L 5.390625 -81.484375 L 5.390625 -105.640625 L 22.359375 -105.640625 L 22.359375 -139.796875 L 53.328125 -139.796875 L 53.328125 -105.640625 L 76.484375 -105.640625 L 76.484375 -81.484375 Z M 53.328125 -81.484375 "/></g></g></g><g fill="#ffffff" fill-opacity="1"><g transform="translate(164.690826, 200.654584)"><g><path d="M 13.984375 -105.640625 L 44.9375 -105.640625 L 44.9375 0 L 13.984375 0 Z M 29.359375 -123.21875 C 24.566406 -123.21875 20.570312 -124.847656 17.375 -128.109375 C 14.175781 -131.367188 12.578125 -135.328125 12.578125 -139.984375 C 12.578125 -144.785156 14.175781 -148.816406 17.375 -152.078125 C 20.570312 -155.335938 24.566406 -156.96875 29.359375 -156.96875 C 34.148438 -156.96875 38.175781 -155.335938 41.4375 -152.078125 C 44.695312 -148.816406 46.328125 -144.785156 46.328125 -139.984375 C 46.328125 -135.328125 44.695312 -131.367188 41.4375 -128.109375 C 38.175781 -124.847656 34.148438 -123.21875 29.359375 -123.21875 Z M 29.359375 -123.21875 "/></g></g></g><g fill="#ffffff" fill-opacity="1"><g transform="translate(207.625645, 200.654584)"><g><path d="M 58.3125 1.796875 C 47 1.796875 37.515625 -0.796875 29.859375 -5.984375 C 22.203125 -11.179688 16.539062 -17.941406 12.875 -26.265625 C 9.21875 -34.585938 7.390625 -43.539062 7.390625 -53.125 C 7.390625 -62.707031 9.21875 -71.660156 12.875 -79.984375 C 16.539062 -88.304688 22.203125 -95.03125 29.859375 -100.15625 C 37.515625 -105.28125 47 -107.84375 58.3125 -107.84375 C 72.425781 -107.84375 83.640625 -103.78125 91.953125 -95.65625 C 100.273438 -87.53125 105.367188 -77.210938 107.234375 -64.703125 L 76.890625 -64.703125 C 76.085938 -70.160156 74.15625 -74.550781 71.09375 -77.875 C 68.03125 -81.207031 63.90625 -82.875 58.71875 -82.875 C 51.257812 -82.875 45.929688 -79.976562 42.734375 -74.1875 C 39.535156 -68.394531 37.9375 -61.375 37.9375 -53.125 C 37.9375 -44.738281 39.535156 -37.648438 42.734375 -31.859375 C 45.929688 -26.066406 51.257812 -23.171875 58.71875 -23.171875 C 63.90625 -23.171875 68.03125 -24.863281 71.09375 -28.25 C 74.15625 -31.644531 76.085938 -36.007812 76.890625 -41.34375 L 107.234375 -41.34375 C 105.367188 -28.820312 100.3125 -18.5 92.0625 -10.375 C 83.8125 -2.257812 72.5625 1.796875 58.3125 1.796875 Z M 58.3125 1.796875 "/></g></g></g><g fill="#ffffff" fill-opacity="1"><g transform="translate(305.877024, 200.654584)"><g><path d="M 50.328125 1.796875 C 41.398438 1.796875 33.675781 0.132812 27.15625 -3.1875 C 20.632812 -6.519531 15.675781 -10.878906 12.28125 -16.265625 C 8.882812 -21.660156 7.1875 -27.351562 7.1875 -33.34375 L 7.1875 -34.75 L 37.34375 -34.75 L 37.34375 -33.546875 C 37.34375 -30.484375 38.539062 -27.785156 40.9375 -25.453125 C 43.332031 -23.128906 46.726562 -21.96875 51.125 -21.96875 C 54.851562 -21.96875 57.847656 -22.863281 60.109375 -24.65625 C 62.367188 -26.457031 63.5 -28.820312 63.5 -31.75 C 63.5 -34.414062 62.429688 -36.546875 60.296875 -38.140625 C 58.171875 -39.742188 55.515625 -40.8125 52.328125 -41.34375 L 40.9375 -43.734375 C 33.21875 -45.066406 26.09375 -48.160156 19.5625 -53.015625 C 13.039062 -57.878906 9.78125 -65.367188 9.78125 -75.484375 C 9.78125 -85.734375 13.472656 -93.6875 20.859375 -99.34375 C 28.253906 -105.007812 37.742188 -107.84375 49.328125 -107.84375 C 57.984375 -107.84375 65.4375 -106.3125 71.6875 -103.25 C 77.945312 -100.1875 82.675781 -96.15625 85.875 -91.15625 C 89.070312 -86.164062 90.671875 -80.875 90.671875 -75.28125 L 90.671875 -74.296875 L 60.515625 -74.296875 L 60.515625 -74.890625 C 60.515625 -77.546875 59.515625 -80.003906 57.515625 -82.265625 C 55.515625 -84.535156 52.453125 -85.671875 48.328125 -85.671875 C 44.867188 -85.671875 42.101562 -84.835938 40.03125 -83.171875 C 37.96875 -81.515625 36.9375 -79.21875 36.9375 -76.28125 C 36.9375 -71.09375 41.265625 -67.703125 49.921875 -66.109375 L 62.3125 -63.3125 C 70.695312 -61.445312 77.785156 -58.050781 83.578125 -53.125 C 89.367188 -48.195312 92.265625 -41.207031 92.265625 -32.15625 C 92.265625 -25.226562 90.429688 -19.203125 86.765625 -14.078125 C 83.109375 -8.953125 78.082031 -5.023438 71.6875 -2.296875 C 65.300781 0.429688 58.179688 1.796875 50.328125 1.796875 Z M 50.328125 1.796875 "/></g></g></g></g></g><g transform="matrix(1, 0, 0, 1, 477, 0)"><g clip-path="url(#5e268e546c)"><g clip-path="url(#ea20627541)"><g transform="matrix(1, 0, 0, 1, -0.000000000000056843, 0)"><g clip-path="url(#ec01c1e514)"><g clip-path="url(#59625501f9)"><g mask="url(#6be12eff42)"><g transform="matrix(1, 0, 0, 1, -0.000000000000056843, 0)"><g clip-path="url(#9f063dedab)"><g clip-path="url(#b849b888d0)"><path fill="url(#10df70c075)" d="M 14.996094 0 L 14.996094 148.027344 L 245.902344 148.027344 L 245.902344 0 Z M 14.996094 0 " fill-rule="nonzero"/></g></g></g></g></g></g></g></g></g></g><g clip-path="url(#1bf246132f)"><g><g clip-path="url(#05ef8966dd)"><g clip-path="url(#325963686f)"><g><g clip-path="url(#2d25cf1555)"><g clip-path="url(#16e4eefc3e)"><g mask="url(#b4894dbc1b)"><g><g clip-path="url(#44f9bc0480)"><g clip-path="url(#5a284d0693)"><path fill="url(#ae684e4de4)" d="M 0.554688 0 L 0.554688 337 L 744.726562 337 L 744.726562 0 Z M 0.554688 0 " fill-rule="nonzero"/></g></g></g></g></g></g></g></g></g></g></g></g></g></g><g clip-path="url(#32943336e2)"><g transform="matrix(1, 0, 0, 1, 0, 209)"><g clip-path="url(#3c8022915d)"><g clip-path="url(#64d4382770)"><g mask="url(#a65d1448a4)"><g><g clip-path="url(#3015764640)"><g clip-path="url(#ba7be98342)"><path fill="url(#9d193fb14c)" d="M 84.070312 0.699219 L 84.070312 128 L 665.199219 128 L 665.199219 0.699219 Z M 84.070312 0.699219 " fill-rule="nonzero"/></g></g></g></g></g></g></g></g></svg>